<?xml version="1.0" standalone="no"?><!DOCTYPE svg PUBLIC "-//W3C//DTD SVG 1.1//EN" "http://www.w3.org/Graphics/SVG/1.1/DTD/svg11.dtd"><svg t="1743046067128" class="icon" viewBox="0 0 1024 1024" version="1.1" xmlns="http://www.w3.org/2000/svg" p-id="1541" xmlns:xlink="http://www.w3.org/1999/xlink" width="200" height="200"><path d="M96 1002.368v-64H192V217.024h64v721.6h96v64z" fill="#389E0D" p-id="1542"></path><path d="M256 204.096s19.2-39.36 128-39.36c88.448 0 148.864 52.032 239.04 75.904a128.576 128.576 0 0 0 31.168 2.816A464.576 464.576 0 0 0 832 204.096V569.6a301.696 301.696 0 0 1-160 39.36c-102.4 0-185.024-78.72-288-78.72S256 569.6 256 569.6z" fill="#52C41A" p-id="1543"></path><path d="M384 164.736c-108.8 0-128 39.36-128 39.36v365.568s25.024-39.36 128-39.36 185.6 78.72 288 78.72a301.76 301.76 0 0 0 160-39.36V204.096a464.576 464.576 0 0 1-177.792 39.36 128.576 128.576 0 0 1-31.168-2.816C532.864 216.768 472.448 164.736 384 164.736m0-64a398.848 398.848 0 0 1 169.536 45.312 573.504 573.504 0 0 0 84.864 32.448 151.808 151.808 0 0 0 15.808 0.896 403.2 403.2 0 0 0 150.464-33.216 64 64 0 0 1 61.568 3.712 64 64 0 0 1 29.76 54.208v365.568a64 64 0 0 1-27.968 52.864 361.728 361.728 0 0 1-196.032 50.432 426.496 426.496 0 0 1-168.512-44.352A321.728 321.728 0 0 0 384 594.304a138.048 138.048 0 0 0-78.144 15.488 64 64 0 0 1-67.776 21.312 64 64 0 0 1-46.08-61.44V204.096a64 64 0 0 1 6.4-28.032c11.136-22.656 51.2-75.328 185.6-75.328z" fill="#389E0D" p-id="1544"></path></svg>