<?xml version="1.0" encoding="utf-8" ?>
<svg baseProfile="full" height="200mm" version="1.1" viewBox="0,0,200,200" width="200mm" xmlns="http://www.w3.org/2000/svg" xmlns:ev="http://www.w3.org/2001/xml-events" xmlns:xlink="http://www.w3.org/1999/xlink"><defs /><rect fill="#1a1a1a" height="200" width="200" x="0" y="0" /><text alignment-baseline="middle" fill="#e1ed5e" style="dominant-baseline: central; font-size:9.0px; font-family:Arial;" text-anchor="middle" x="100.0" y="100.0">2022</text><line stroke="#e1ed5e" stroke-width="0.3" x1="100.0" x2="100.0" y1="15.0" y2="10.0" /><path d="M 100.0 14.0 a86.0,86.0 0 0,1 42.46469731375804,11.215312516191453" fill="none" id="id73" stroke="none" /><text fill="#e1ed5e" style="font-size:6.75px; font-family:Arial;" text-anchor="middle"><textPath startOffset="22.20632615414155" xlink:href="#id73">January</textPath></text><path d="M 100.72285384407766 79.0124445844662 l 0.3540474038675375 -10.279518562811303 a31.28561380994676,31.28561380994676 0 0,0 0.538051725799486,0.023169639134796235 l -0.5309399620563551 10.271901197152312" fill="#ff860c" stroke="none" /><path d="M 103.59715602781102 79.31037775812273 l 1.3250904977208817 -7.621471413023293 a28.73580579685668,28.73580579685668 0 0,0 0.48659965430484664,0.0889229765574947 l -1.4560852731286291 7.597532955115059" fill="#ff6409" stroke="none" /><line stroke="#e1ed5e" stroke-width="0.3" x1="143.23703022742887" x2="145.7803849466894" y1="26.81831364943548" y2="22.513508569990506" /><path d="M 143.74570117128098 25.957352633546492 a86.0,86.0 0 0,1 28.547481713284135,27.462654790039103" fill="none" id="id74" stroke="none" /><text fill="#e1ed5e" style="font-size:6.75px; font-family:Arial;" text-anchor="middle"><textPath startOffset="19.985693538727396" xlink:href="#id74">February</textPath></text><line stroke="#e1ed5e" stroke-width="0.3" x1="172.23445277983987" x2="176.4835382374775" y1="55.19839476539836" y2="52.563006222186495" /><path d="M 173.08426987136738 54.67131705675599 a86.0,86.0 0 0,1 12.851231095245387,41.99856678651699" fill="none" id="id75" stroke="none" /><text fill="#e1ed5e" style="font-size:6.75px; font-family:Arial;" text-anchor="middle"><textPath startOffset="22.20632615414155" xlink:href="#id75">March</textPath></text><path d="M 118.03404312379186 89.2402003453031 l 6.455204762945409 -3.8514219746821663 a28.51685570957816,28.51685570957816 0 0,0 0.2478798154432906,0.42370695601532155 l -6.520544252859027 3.739735606312949" fill="#ff6108" stroke="none" /><path d="M 118.3937258080291 89.86733742301442 l 2.593168957017136 -1.4285146098621628 a23.960604537966358,23.960604537966358 0 0,0 0.19589722557133912,0.36296780735131834 l -2.6173742818069403 1.3836658191783857" fill="#ff2103" stroke="none" /><path d="M 118.89224826269711 90.83032412892265 l 3.9300869018164803 -1.9075349071068606 a25.368554964477458,25.368554964477458 0 0,0 0.18729459911034607,0.3944901918042827 l -3.9623396947685827 1.8396022996620376" fill="#ff3505" stroke="none" /><path d="M 119.34039704204932 91.81776055985345 l 7.710213780443995 -3.2619193468028995 a29.371828615374035,29.371828615374035 0 0,0 0.19298454121033456,0.46732737393732443 l -7.765220008540528 3.128717402412272" fill="#ff6c0a" stroke="none" /><path d="M 120.28053869075195 94.5502522615342 l 0.8102878438154356 -0.2177390064275343 a21.839033172619008,21.839033172619008 0 0,0 0.09443163430856891,0.3638836080788867 l -0.8139158099943071 0.20375897279979718" fill="#ff0300" stroke="none" /><path d="M 120.87857604477298 97.74499172005257 l 22.64377298143213 -2.4456598693742255 a43.77546282803718,43.77546282803718 0 0,0 0.07446596937182108,0.7498621492373052 l -22.682516076486177 2.0555221894324855" fill="#dcff1b" stroke="none" /><line stroke="#e1ed5e" stroke-width="0.3" x1="184.98032266829074" x2="189.97916517819016" y1="98.17113171792111" y2="98.06355123074" /><path d="M 185.9800911702706 98.14961562048488 a86.0,86.0 0 0,1 -9.607161424134198,41.387399972396054" fill="none" id="id76" stroke="none" /><text fill="#e1ed5e" style="font-size:6.75px; font-family:Arial;" text-anchor="middle"><textPath startOffset="21.466115282336823" xlink:href="#id76">April</textPath></text><path d="M 120.99824983174949 100.27111621757518 l 50.90745798779054 0.6572851340757433 a71.91170103744459,71.91170103744459 0 0,0 -0.026634509661129922,1.237601005656621 l -50.888601415444406 -1.533475955522479" fill="#3effb6" stroke="none" /><path d="M 120.92983693683757 101.71520430193887 l 5.1709367316103565 0.4237592941539618 a26.188271255601336,26.188271255601336 0 0,0 -0.04068585345330746,0.44896500255976074 l -5.162876281879974 -0.5127056852622931" fill="#ff4106" stroke="none" /><path d="M 120.89721153311464 102.0752229133903 l 0.643492595402452 0.06390281193546052 a21.646657784079835,21.646657784079835 0 0,0 -0.04001302073201521,0.3704708774523573 l -0.6422972731693849 -0.07497001127260924" fill="#ff0000" stroke="none" /><path d="M 120.8583938346157 102.4346265915055 l 31.485170553020957 3.675001731881113 a52.69892115643918,52.69892115643918 0 0,0 -0.11292247220757658,0.9001032089058628 l -31.417246571566533 -4.21642269507437" fill="#79ff26" stroke="none" /><path d="M 120.64145759157962 103.86396538481128 l 5.032489925697344 0.9420539603869098 a26.119904346423468,26.119904346423468 0 0,0 -0.08653159504999632,0.44122273891390695 l -5.015528397671683 -1.0285404263687616" fill="#ff4006" stroke="none" /><path d="M 120.23288151984713 105.62410040840565 l 4.9263694833590295 1.3693747277736261 a26.11315004978694,26.11315004978694 0 0,0 -0.12410879281270747,0.4320389893250298 l -4.902068053660223 -1.453971192603238" fill="#ff4006" stroke="none" /><path d="M 120.02730092923936 106.31721596034902 l 25.607399348639046 8.077347638596532 a47.85111629477293,47.85111629477293 0 0,0 -0.2545400232213747,0.7833936390206372 l -25.464567074401423 -8.516940177594964" fill="#adff20" stroke="none" /><path d="M 119.79798401119884 107.00284435728193 l 51.98948598331997 18.389462197279247 a76.14597875380386,76.14597875380386 0 0,0 -0.44772290467172554,1.231941144320438 l -51.66523881764302 -19.281651138605817" fill="#43ffe2" stroke="none" /><path d="M 119.41010516605496 108.01547362559984 l 4.717598849473044 1.948149627764064 a26.104020559980793,26.104020559980793 0 0,0 -0.17508217537186138,0.41384254414056315 l -4.683365692908874 -2.0290666975707907" fill="#ff4006" stroke="none" /><line stroke="#e1ed5e" stroke-width="0.3" x1="174.80103733775053" x2="179.2010983576182" y1="140.37084112569926" y2="142.7455964860345" /><path d="M 175.68104954172406 140.8457921977663 a86.0,86.0 0 0,1 -30.038265399797805,32.042727171017184" fill="none" id="id77" stroke="none" /><text fill="#e1ed5e" style="font-size:6.75px; font-family:Arial;" text-anchor="middle"><textPath startOffset="22.206326154141568" xlink:href="#id77">May</textPath></text><path d="M 118.30583269289576 110.29060199501025 l 46.13781034277968 25.936315005384632 a73.92815866138598,73.92815866138598 0 0,0 -0.633134845875259,1.103923970878493 l -45.68452350075204 -26.72665882212144" fill="#41ffcb" stroke="none" /><path d="M 116.27256486870786 113.27417163493432 l 3.3194173073188815 2.7077793464541404 a25.283760059715267,25.283760059715267 0 0,0 -0.27800577788191033,0.3348758684974411 l -3.2723155295434276 -2.764516472065352" fill="#ff3404" stroke="none" /><path d="M 115.56566222782051 114.09645910891815 l 3.097342325728503 2.804992091047497 a25.17869717897675,25.17869717897675 0 0,0 -0.293695824570397,0.31874881194134 l -3.048600093162384 -2.8578921577901717" fill="#ff3304" stroke="none" /><path d="M 114.55890576462653 115.13401014063108 l 3.13138695912356 3.2550826799607044 a25.516762949408488,25.516762949408488 0 0,0 -0.3191590118644731,0.3017847666189548 l -3.07489211286828 -3.308502083325581" fill="#ff3705" stroke="none" /><path d="M 113.20401910651253 116.32954008644616 l 2.629833430265288 3.2523408269692875 a25.182552417568985,25.182552417568985 0 0,0 -0.3394158464783551,0.2696524760714043 l -2.573460091069582 -3.297127217045818" fill="#ff3304" stroke="none" /><path d="M 111.7513745106137 117.40417183066458 l 1.5081271933590834 2.233585934310303 a23.695060993242635,23.695060993242635 0 0,0 -0.3399962567697029,0.2253309795577364 l -1.4694562378494165 -2.259214934959358" fill="#ff1e03" stroke="none" /><line stroke="#e1ed5e" stroke-width="0.3" x1="143.8653032363475" x2="146.44561519142675" y1="172.8068346515853" y2="177.08958963109032" /><path d="M 144.38136562736335 173.6633856474863 a86.0,86.0 0 0,1 -40.68145358897372,12.25698825130547" fill="none" id="id78" stroke="none" /><text fill="#e1ed5e" style="font-size:6.75px; font-family:Arial;" text-anchor="middle"><textPath startOffset="21.466115282336833" xlink:href="#id78">June</textPath></text><path d="M 108.2653958097858 119.30500536409082 l 1.2249035717841643 2.860936193254138 a24.112128638414724,24.112128638414724 0 0,0 -0.38295633681809205,0.16007577984864102 l -1.1754757754686112 -2.8815970161227527" fill="#ff2303" stroke="none" /><path d="M 106.2309692047433 120.05430185196036 l 1.2946428308152755 4.166792880292459 a25.363285799330285,25.363285799330285 0 0,0 -0.41804133074154975,0.1259524237071024 l -1.2227265256334798 -4.188460673105288" fill="#ff3505" stroke="none" /><path d="M 103.06178313531738 120.77559828337769 l 0.7432855931716008 5.043532546584027 a26.098008829088943,26.098008829088943 0 0,0 -0.4449976566024007,0.0616726203772111 l -0.6563593453823696 -5.0555797324538405" fill="#ff3f05" stroke="none" /><path d="M 102.34483914955558 120.86867818915974 l 0.5020968804676396 4.46857867425408 a25.49669841610194,25.49669841610194 0 0,0 -0.43656103069561036,0.04525133582196113 l -0.42510325316642655 -4.4765593785318" fill="#ff3705" stroke="none" /><line stroke="#e1ed5e" stroke-width="0.3" x1="102.19456741930631" x2="102.32365962044197" y1="184.97166512339345" y2="189.96999836594603" /><path d="M 102.22038585953345 185.97133177190398 a86.0,86.0 0 0,1 -42.740103519485714,-10.115201625700543" fill="none" id="id79" stroke="none" /><text fill="#e1ed5e" style="font-size:6.75px; font-family:Arial;" text-anchor="middle"><textPath startOffset="22.20632615414155" xlink:href="#id79">July</textPath></text><path d="M 99.81925306533755 120.99922214144158 l -0.05500761398335788 6.390797761878647 a27.391034491444188,27.391034491444188 0 0,0 -0.4714392381308674,-0.008116254022396805 l 0.16500654200689321 -6.388904030577091" fill="#ff5107" stroke="none" /><path d="M 96.22490169976321 120.6578951692458 l -9.331399905409228 51.06279775977294 a72.90842262340615,72.90842262340615 0 0,0 -1.2326119619906135,-0.2362330161566897 l 10.208979481971538 -50.89460754526778" fill="#3fffc1" stroke="none" /><path d="M 94.11515582081647 120.15858648285463 l -0.7896405501214184 2.704920782150597 a23.81782338625157,23.81782338625157 0 0,0 -0.3925687965878112,-0.11827775812096486 l 0.8360843211494754 -2.6909276549239065" fill="#ff1f03" stroke="none" /><path d="M 93.76903079525671 120.05430185196036 l -0.8051764194162375 2.5914509329883795 a23.713655653260062,23.713655653260062 0 0,0 -0.38876692720385675,-0.124470893235753 l 0.8496646917110346 -2.57720719309292" fill="#ff1e03" stroke="none" /><path d="M 92.40401165467489 119.57807347666478 l -18.23940937192903 47.0106693981915 a71.42498479427506,71.42498479427506 0 0,0 -1.1423879541156075,-0.45457974314302735 l 19.045918402086492 -46.68974281064241" fill="#3dffb1" stroke="none" /><path d="M 92.06813273071674 119.44442032107085 l -0.9690514921752826 2.3755622587869856 a23.56561042246485,23.56561042246485 0 0,0 -0.37427636429790917,-0.1564475506312385 l 1.0097993159706542 -2.358529665135774" fill="#ff1c02" stroke="none" /><path d="M 90.10565033884886 118.52300852407294 l -29.683048983453403 55.569025572218784 a84.0,84.0 0 0,0 -1.2695087525254378,-0.6922373929609367 l 30.635180547847483 -55.04984752749809" fill="#4dd2ff" stroke="none" /><line stroke="#e1ed5e" stroke-width="0.3" x1="58.666819895761336" x2="56.23545636021788" y1="174.27360380694188" y2="178.64263932499728" /><path d="M 58.180547188652646 175.14741091055294 a86.0,86.0 0 0,1 -31.652253787137756,-30.449443065178592" fill="none" id="id80" stroke="none" /><text fill="#e1ed5e" style="font-size:6.75px; font-family:Arial;" text-anchor="middle"><textPath startOffset="22.20632615414155" xlink:href="#id80">August</textPath></text><path d="M 88.54995079064634 117.60387380957326 l -27.755682293351004 42.67296320365236 a71.90539940074831,71.90539940074831 0 0,0 -1.0317579112692312,-0.6837928835499316 l 28.486114903360196 -42.18887229901111" fill="#3effb6" stroke="none" /><line stroke="#e1ed5e" stroke-width="0.3" x1="26.63291911575756" x2="22.317208475507996" y1="142.92168965132927" y2="145.44649492493687" /><path d="M 25.769776987707644 143.4266507060508 a86.0,86.0 0 0,1 -11.730757126820373,-40.83630448921669" fill="none" id="id81" stroke="none" /><text fill="#e1ed5e" style="font-size:6.75px; font-family:Arial;" text-anchor="middle"><textPath startOffset="21.46611528233685" xlink:href="#id81">September</textPath></text><path d="M 80.58989483394504 108.01547362559985 l -2.44728172775166 1.0106139031905501 a23.64774022825299,23.64774022825299 0 0,0 -0.1521308515979706,-0.37757629750582616 l 2.4643151936070185 -0.9683382378419185" fill="#ff1d02" stroke="none" /><path d="M 80.32549172779594 107.34259656027581 l -2.388133747775657 0.891260020290801 a23.54902475881145,23.54902475881145 0 0,0 -0.13846348736669098,-0.38099204953160387 l 2.4031214961475724 -0.85002017375308" fill="#ff1b02" stroke="none" /><path d="M 80.20201598880116 107.00284435728193 l -2.4200140912553536 0.8559953384094137 a23.566942971951875,23.566942971951875 0 0,0 -0.13198517048283723,-0.38361068631195244 l 2.4343900926814195 -0.8142119490081643" fill="#ff1c02" stroke="none" /><path d="M 79.58551787078972 104.9243191809786 l -2.7483993217622706 0.6629605106551913 a23.827227523661918,23.827227523661918 0 0,0 -0.09274400443942975,-0.3995387437889561 l 2.7594038921322555 -0.6155531095176611" fill="#ff1f03" stroke="none" /><path d="M 79.35854240842038 103.8639653848113 l -3.3313319279801616 0.6236067001529496 a24.389197210381194,24.389197210381194 0 0,0 -0.0736943491185629,-0.41331704627830856 l 3.341572719437913 -0.5661709031414274" fill="#ff2703" stroke="none" /><line stroke="#e1ed5e" stroke-width="0.3" x1="15.007084014347285" x2="10.007500721073583" y1="101.09737516637583" y2="101.16192664675087" /><path d="M 14.007167355692545 101.11028546245083 a86.0,86.0 0 0,1 10.666146001902534,-42.60595125391555" fill="none" id="id82" stroke="none" /><text fill="#e1ed5e" style="font-size:6.75px; font-family:Arial;" text-anchor="middle"><textPath startOffset="22.20632615414155" xlink:href="#id82">October</textPath></text><path d="M 79.54389044137918 95.25157060432595 l -3.2996894806655948 -0.765949286773634 a24.38742217308741,24.38742217308741 0 0,0 0.09844064221285405,-0.4081000149228572 l 3.2860160381919257 0.8226345333558881" fill="#ff2703" stroke="none" /><path d="M 79.91906864156998 93.8553929516997 l -2.7365553181055278 -0.8373644028535514 a23.861802605390164,23.861802605390164 0 0,0 0.1235638181305603,-0.39173107033209564 l 2.7217360162067634 0.8843456396120616" fill="#ff2003" stroke="none" /><path d="M 80.14247586403 93.16781622104843 l -24.08761993438985 -8.287591396713156 a46.4734686539248,46.4734686539248 0 0,0 0.26677302239583434,-0.7542032583545742 l 23.941393831184207 8.700992281494342" fill="#bdff1f" stroke="none" /><path d="M 80.38941819471856 92.48833698450439 l -2.694035058603951 -1.0319267277788675 a23.88490860660985,23.88490860660985 0 0,0 0.15036852277524437,-0.38267148898417286 l 2.6758729859470156 1.0781472216588037" fill="#ff2003" stroke="none" /><line stroke="#e1ed5e" stroke-width="0.3" x1="26.266209847984243" x2="21.928928074336255" y1="57.711370442889674" y2="55.22380399835377" /><path d="M 25.398753493254645 57.213857153982495 a86.0,86.0 0 0,1 29.58750427330803,-30.492523968695096" fill="none" id="id83" stroke="none" /><text fill="#e1ed5e" style="font-size:6.75px; font-family:Arial;" text-anchor="middle"><textPath startOffset="21.46611528233685" xlink:href="#id83">November</textPath></text><path d="M 83.17141714833178 87.43820079747576 l -4.082541768928036 -3.047438420051412 a26.094509615168814,26.094509615168814 0 0,0 0.2717855752805119,-0.35763795872211995 l 4.029480253423415 3.1172611546545586" fill="#ff3f05" stroke="none" /><line stroke="#e1ed5e" stroke-width="0.3" x1="56.762969772571076" x2="54.21961505331055" y1="26.818313649435495" y2="22.513508569990535" /><path d="M 56.25429882871897 25.957352633546506 a86.0,86.0 0 0,1 42.265352541879196,-11.944610805530505" fill="none" id="id84" stroke="none" /><text fill="#e1ed5e" style="font-size:6.75px; font-family:Arial;" text-anchor="middle"><textPath startOffset="22.20632615414155" xlink:href="#id84">December</textPath></text></svg>