<?xml version="1.0" encoding="utf-8" ?>
<svg baseProfile="full" height="200mm" version="1.1" viewBox="0,0,200,200" width="200mm" xmlns="http://www.w3.org/2000/svg" xmlns:ev="http://www.w3.org/2001/xml-events" xmlns:xlink="http://www.w3.org/1999/xlink"><defs /><rect fill="#1a1a1a" height="200" width="200" x="0" y="0" /><text alignment-baseline="middle" fill="#e1ed5e" style="dominant-baseline: central; font-size:9.0px; font-family:Arial;" text-anchor="middle" x="100.0" y="100.0">2020</text><line stroke="#e1ed5e" stroke-width="0.3" x1="100.0" x2="100.0" y1="15.0" y2="10.0" /><path d="M 100.0 14.0 a86.0,86.0 0 0,1 42.35913384403234,11.155469271406648" fill="none" id="id49" stroke="none" /><text fill="#e1ed5e" style="font-size:6.75px; font-family:Arial;" text-anchor="middle"><textPath startOffset="22.145653131862478" xlink:href="#id49">January</textPath></text><line stroke="#e1ed5e" stroke-width="0.3" x1="143.13028292997686" x2="145.6673583964461" y1="26.7553504044142" y2="22.446841604673864" /><path d="M 143.63769802327073 25.89364864446614 a86.0,86.0 0 0,1 29.32050498858742,28.57503671076993" fill="none" id="id50" stroke="none" /><text fill="#e1ed5e" style="font-size:6.75px; font-family:Arial;" text-anchor="middle"><textPath startOffset="20.669276256404974" xlink:href="#id50">February</textPath></text><line stroke="#e1ed5e" stroke-width="0.3" x1="172.87174338648825" x2="177.1583165268699" y1="56.24261187166439" y2="53.66864786411523" /><path d="M 173.72905801456457 55.72781907015455 a86.0,86.0 0 0,1 12.242430191666344,42.057860355516425" fill="none" id="id51" stroke="none" /><text fill="#e1ed5e" style="font-size:6.75px; font-family:Arial;" text-anchor="middle"><textPath startOffset="22.145653131862474" xlink:href="#id51">March</textPath></text><line stroke="#e1ed5e" stroke-width="0.3" x1="184.99686870605535" x2="189.99668451229388" y1="99.2704041080226" y2="99.22748670261217" /><path d="M 185.99683186730306 99.26182062694052 a86.0,86.0 0 0,1 -10.086455211305974,41.156179273409016" fill="none" id="id52" stroke="none" /><text fill="#e1ed5e" style="font-size:6.75px; font-family:Arial;" text-anchor="middle"><textPath startOffset="21.40746469413373" xlink:href="#id52">April</textPath></text><path d="M 120.82617615685814 102.69636545807757 l 27.00871707825716 3.4968191591340583 a48.23414295411234,48.23414295411234 0 0,0 -0.11336283066882458,0.820236971088667 l -26.944709731033125 -3.95994443842281" fill="#fffd17" stroke="none" /><path d="M 119.31412917781788 108.2440532568976 l 18.29422396989861 7.8087163709493455 a40.891070409174695,40.891070409174695 0 0,0 -0.2811088140544513,0.6432319792198559 l -18.157481273827194 -8.121610419945046" fill="#ff8c0c" stroke="none" /><path d="M 119.0197475246899 108.90220220490707 l 27.473484820504208 12.858978113567842 a51.33390324880219,51.33390324880219 0 0,0 -0.3804104816853658,0.7949115979385732 l -27.24869508085893 -13.328702213571518" fill="#d5ff1c" stroke="none" /><path d="M 118.70294669586154 109.54985784667822 l 35.55200700570023 18.153108095189694 a60.918423511569195,60.918423511569195 0 0,0 -0.4835528404831106,0.9272763304582894 l -35.235146096242175 -18.760730668752487" fill="#56ff2a" stroke="none" /><line stroke="#e1ed5e" stroke-width="0.3" x1="174.33088141563837" x2="178.70328620479359" y1="141.23008692659167" y2="143.65538615756765" /><path d="M 175.20536237346943 141.71514677278685 a86.0,86.0 0 0,1 -30.301960400862466,31.631185727798858" fill="none" id="id53" stroke="none" /><text fill="#e1ed5e" style="font-size:6.75px; font-family:Arial;" text-anchor="middle"><textPath startOffset="22.145653131862474" xlink:href="#id53">May</textPath></text><path d="M 118.00360718960297 110.81064883170644 l 25.729201445993112 15.449646208316272 a51.011387422287484,51.011387422287484 0 0,0 -0.45723701383100673,0.7468622993973337 l -25.4601964677067 -15.889045623838163" fill="#d9ff1c" stroke="none" /><path d="M 114.91283532996324 114.78537596483092 l 21.253010758752268 21.07136218565911 a50.928126748442914,50.928126748442914 0 0,0 -0.6208577114403165,0.6155512671601523 l -20.888161127181988 -21.43309346304792" fill="#daff1b" stroke="none" /><path d="M 114.65682725009322 115.03919595460226 l 21.074670928385746 21.624468949699672 a51.19535414755509,51.19535414755509 0 0,0 -0.634645680022762,0.6079762051957213 l -20.700352762497673 -21.983057285200974" fill="#d7ff1c" stroke="none" /><path d="M 114.39649973595853 115.28858382429668 l 22.715991112744465 24.12359536337317 a54.13554142442892,54.13554142442892 0 0,0 -0.6820310749858742,0.6312777808741945 l -22.298530266444626 -24.509990890379743" fill="#aeff20" stroke="none" /><path d="M 113.59037401385872 116.0094264158162 l 19.364678251190483 22.81154228811152 a50.9225203706912,50.9225203706912 0 0,0 -0.6712695527510026,0.5599969354338442 l -18.970234364277584 -23.140601407457236" fill="#daff1b" stroke="none" /><path d="M 112.16784306229584 117.11559508785304 l 17.93965386715052 25.234369808551023 a51.96134041846186,51.96134041846186 0 0,0 -0.7314298712804151,0.5105948558602121 l -17.503828904696345 -25.538609480216355" fill="#ccff1d" stroke="none" /><path d="M 111.5731344415666 117.5232005979908 l 16.55590722896244 25.067753677245243 a51.04147697096555,51.04147697096555 0 0,0 -0.7352752445019068,0.47659653014265546 l -16.123146352203523 -25.348264049091792" fill="#d9ff1c" stroke="none" /><line stroke="#e1ed5e" stroke-width="0.3" x1="143.1302829299769" x2="145.66735839644613" y1="173.24464959558577" y2="177.55315839532614" /><path d="M 143.63769802327073 174.10635135553383 a86.0,86.0 0 0,1 -40.68552437913181,11.842963189579606" fill="none" id="id54" stroke="none" /><text fill="#e1ed5e" style="font-size:6.75px; font-family:Arial;" text-anchor="middle"><textPath startOffset="21.407464694133747" xlink:href="#id54">June</textPath></text><path d="M 107.74402155503746 119.51999308798841 l 7.723072388663313 19.467187503717195 a41.94319069352654,41.94319069352654 0 0,0 -0.6715459100327087,0.2597683844498837 l -7.387754216137075 -19.59689577630512" fill="#ff9d0e" stroke="none" /><path d="M 106.0420521117495 120.11202640906438 l 8.587460408541423 28.58486277990255 a50.846923734517844,50.846923734517844 0 0,0 -0.8381025500904472,0.24395943769388664 l -8.09549784606937 -28.728065911898955" fill="#dbff1b" stroke="none" /><path d="M 104.64783097203109 120.47920084513623 l 7.2021652139428 31.734068821296596 a53.541086455797945,53.541086455797945 0 0,0 -0.8980563287988659,0.19572719700705277 l -6.656346468524799 -31.853027476437365" fill="#b6ff1f" stroke="none" /><line stroke="#e1ed5e" stroke-width="0.3" x1="101.45913802915013" x2="101.54496967792366" y1="184.9874750549273" y2="189.98673829345242" /><path d="M 101.47630435890484 185.9873277026323 a86.0,86.0 0 0,1 -42.54439059252881,-10.42667462771756" fill="none" id="id55" stroke="none" /><text fill="#e1ed5e" style="font-size:6.75px; font-family:Arial;" text-anchor="middle"><textPath startOffset="22.145653131862474" xlink:href="#id55">July</textPath></text><path d="M 93.95794788825049 120.11202640906438 l -5.170550972656906 17.211082557409178 a38.97097549268814,38.97097549268814 0 0,0 -0.6390485931922458,-0.1979788877173061 l 5.465240198720785 -17.119787081885224" fill="#ff6d0a" stroke="none" /><path d="M 93.61358852112213 120.00534299687104 l -9.108416247555665 28.531984165642985 a50.950582080608015,50.950582080608015 0 0,0 -0.8309245650581223,-0.2731414087935963 l 9.596863550261531 -28.371421835447368" fill="#daff1c" stroke="none" /><line stroke="#e1ed5e" stroke-width="0.3" x1="58.13341422392154" x2="55.67067388415222" y1="173.97424548756322" y2="178.32567169271397" /><path d="M 57.64086615596768 174.84453072859336 a86.0,86.0 0 0,1 -31.369924170532247,-30.572349798747897" fill="none" id="id56" stroke="none" /><text fill="#e1ed5e" style="font-size:6.75px; font-family:Arial;" text-anchor="middle"><textPath startOffset="22.145653131862474" xlink:href="#id56">August</textPath></text><path d="M 86.13680546590413 115.77377054828092 l -12.610601543742414 14.348549660582476 a40.10256916378632,40.10256916378632 0 0,0 -0.5131887070735253,-0.4588965063437469 l 12.855055277639309 -14.129957624355347" fill="#ff7f0b" stroke="none" /><line stroke="#e1ed5e" stroke-width="0.3" x1="26.387840678322732" x2="22.057713659400548" y1="142.50000000000003" y2="145.00000000000006" /><path d="M 25.521815274538298 143.00000000000003 a86.0,86.0 0 0,1 -11.493303480769221,-40.785679425670985" fill="none" id="id57" stroke="none" /><text fill="#e1ed5e" style="font-size:6.75px; font-family:Arial;" text-anchor="middle"><textPath startOffset="21.40746469413373" xlink:href="#id57">September</textPath></text><path d="M 81.63589988554817 110.18625677009913 l -21.320097541558045 11.825898713706295 a45.38028793038322,45.38028793038322 0 0,0 -0.3720203620481333,-0.6844755646419249 l 21.51996325322151 -11.458168315589782" fill="#ffd213" stroke="none" /><path d="M 81.29705330413844 109.54985784667822 l -21.64246758970755 11.050798159991597 a45.30054615321259,45.30054615321259 0 0,0 -0.3476926647871676,-0.6956182396568912 l 21.828980167706455 -10.677648064170953" fill="#ffd113" stroke="none" /><path d="M 80.9802524753101 108.90220220490708 l -18.95335918019632 8.871129107540055 a41.92669959301219,41.92669959301219 0 0,0 -0.299507441728906,-0.6544778126649674 l 19.10285108678028 -8.544462312660398" fill="#ff9d0e" stroke="none" /><path d="M 80.05021161711548 106.5578916946017 l -19.293613559149758 6.342193996751989 a41.3092823325258,41.3092823325258 0 0,0 -0.21566451950305193,-0.6755660356654503 l 19.399642794430065 -6.010058927395148" fill="#ff930d" stroke="none" /><path d="M 79.64726062577567 105.17358676015961 l -15.227400993643764 3.8707457862958567 a36.71166490106476,36.71166490106476 0 0,0 -0.15001517956501603,-0.612113125430814 l 15.291603699725075 -3.6087768362569435" fill="#ff4706" stroke="none" /><path d="M 79.48165901384964 104.47187691870673 l -18.59756007724548 4.053251659567987 a40.03412960559388,40.03412960559388 0 0,0 -0.14058135058430868,-0.6727326535677064 l 18.664399138654154 -3.7334025547148713" fill="#ff7e0b" stroke="none" /><path d="M 79.407916724674 104.11899336999214 l -15.210989940318672 3.0426239966824262 a36.512310458138195,36.512310458138195 0 0,0 -0.11766302028796141,-0.6156626418063819 l 15.260979252888792 -2.78105878984273" fill="#ff4406" stroke="none" /><path d="M 79.2786578344484 103.40968896794605 l -20.624267610093977 3.3937153867866936 a41.90161999892076,41.90161999892076 0 0,0 -0.1106971121204501,-0.7107548685634799 l 20.679486214352693 -3.039172336291764" fill="#ff9c0e" stroke="none" /><path d="M 79.22317932658666 103.0534771498775 l -11.446373062683252 1.682222662709954 a32.56932709266428,32.56932709266428 0 0,0 -0.07654642305380284,-0.5538517856593395 l 11.473564002292267 -1.4854825688505289" fill="#ff0000" stroke="none" /><path d="M 79.01933749520258 100.90099992219065 l -20.875282195169355 0.8964744382716544 a41.89452256325636,41.89452256325636 0 0,0 -0.02468846808751932,-0.7187778108865903 l 20.887595350253722 -0.5379903628209441" fill="#ff9c0e" stroke="none" /><line stroke="#e1ed5e" stroke-width="0.3" x1="15.003131293944662" x2="10.003315487706104" y1="100.72959589197737" y2="100.7725132973878" /><path d="M 14.003168132696942 100.73817937305945 a86.0,86.0 0 0,1 10.791469493833604,-42.45332614584628" fill="none" id="id58" stroke="none" /><text fill="#e1ed5e" style="font-size:6.75px; font-family:Arial;" text-anchor="middle"><textPath startOffset="22.145653131862435" xlink:href="#id58">October</textPath></text><path d="M 79.06263194458094 98.37931529534042 l -19.131046649407008 -1.4808640038592655 a40.1882751726077,40.1882751726077 0 0,0 0.05914638074340648,-0.6873705992511986 l 19.102806645965856 1.809055650486145" fill="#ff810b" stroke="none" /><path d="M 79.0935383218832 98.0201363427161 l -20.665244007611207 -1.957020093093959 a41.757703089187984,41.757703089187984 0 0,0 0.073707530903678,-0.7130534994112216 l 20.628604084225866 2.3114781147880934" fill="#ff9a0e" stroke="none" /><path d="M 79.22317932658666 96.9465228501225 l -27.23535591357524 -4.0026594183055195 a48.52791118407039,48.52791118407039 0 0,0 0.12820267153042403,-0.823153117616516 l 27.16263174990655 4.469600717853486" fill="#fdff18" stroke="none" /><path d="M 79.407916724674 95.88100663000787 l -23.470158209090954 -4.694688961934648 a44.93508785881244,44.93508785881244 0 0,0 0.15779124966747765,-0.7550882507342696 l 23.386109248599112 5.096893663954327" fill="#ffcb13" stroke="none" /><path d="M 79.48165901384962 95.52812308129327 l -26.264891363533607 -5.724310827089045 a47.881448115444805,47.881448115444805 0 0,0 0.1819247377382315,-0.8015939618414845 l 26.162755764237712 6.174339122869538" fill="#fff817" stroke="none" /><path d="M 79.83685265289637 94.1308016681162 l -20.07793618986522 -5.844394605892409 a41.911252233036734,41.911252233036734 0 0,0 0.20700901499365065,-0.6890656848805669 l 19.97465085486794 6.188197894363698" fill="#ff9c0e" stroke="none" /><path d="M 80.05021161711548 93.44210830539832 l -19.86890680436096 -6.5313043132287065 a41.91486059318544,41.91486059318544 0 0,0 0.23056083101309083,-0.6816121289153226 l 19.753860551775503 6.871418116618191" fill="#ff9c0e" stroke="none" /><path d="M 80.83023694016515 91.42560881287825 l -18.14414243460966 -8.115644126826204 a40.87645804163034,40.87645804163034 0 0,0 0.2920049394259716,-0.6380834911469583 l 18.00215303032864 8.425916600187835" fill="#ff8c0c" stroke="none" /><path d="M 81.29705330413844 90.45014215332179 l -18.61174234857061 -9.503288257094756 a41.8975941425565,41.8975941425565 0 0,0 0.33257099394890427,-0.6377487320262688 l 18.445863285646766 9.82138323222551" fill="#ff9c0e" stroke="none" /><line stroke="#e1ed5e" stroke-width="0.3" x1="26.387840678322718" x2="22.05771365940052" y1="57.49999999999999" y2="54.99999999999999" /><path d="M 25.521815274538284 56.99999999999999 a86.0,86.0 0 0,1 29.574782752854787,-30.34633250058573" fill="none" id="id59" stroke="none" /><text fill="#e1ed5e" style="font-size:6.75px; font-family:Arial;" text-anchor="middle"><textPath startOffset="21.40746469413373" xlink:href="#id59">November</textPath></text><path d="M 82.576782715395 88.27688183743585 l -20.54146740402604 -13.821216005991891 a45.758390395882984,45.758390395882984 0 0,0 0.4440966471186928,-0.647950280135263 l 20.301181020092034 14.171801021197188" fill="#ffd814" stroke="none" /><path d="M 83.2033758604659 87.39550010848427 l -24.118513312909755 -18.098982028213918 a51.15420094916487,51.15420094916487 0 0,0 0.5330950346545322,-0.6978385129432877 l 23.804266300900917 18.510341454398088" fill="#d7ff1c" stroke="none" /><path d="M 83.8745106332314 86.54754324733833 l -25.447019613276687 -21.22880881601032 a54.139298890368906,54.139298890368906 0 0,0 0.6014758456683956,-0.7085370338078681 l 25.078849204101175 21.662512632267745" fill="#aeff20" stroke="none" /><path d="M 84.83555147118756 85.47280134310135 l -45.49334558643735 -43.58159597069595 a84.0,84.0 0 0,0 1.0064527953967901,-1.0327092317290787 l 44.73850598988975 44.35612789449276" fill="#4dd2ff" stroke="none" /><path d="M 87.54013794807813 83.09580414077388 l -30.20049475173872 -40.97277130369009 a71.90027378663387,71.90027378663387 0 0,0 0.9998212050003765,-0.723793448407562 l 29.492692536364377 41.48516552347073" fill="#3bff9a" stroke="none" /><line stroke="#e1ed5e" stroke-width="0.3" x1="56.869717070023135" x2="54.33264160355391" y1="26.7553504044142" y2="22.446841604673864" /><path d="M 56.362301976729285 25.89364864446614 a86.0,86.0 0 0,1 42.16139366436587,-11.88097634709845" fill="none" id="id60" stroke="none" /><text fill="#e1ed5e" style="font-size:6.75px; font-family:Arial;" text-anchor="middle"><textPath startOffset="22.145653131862474" xlink:href="#id60">December</textPath></text></svg>