<?xml version="1.0" encoding="utf-8" ?>
<svg baseProfile="full" height="200mm" version="1.1" viewBox="0,0,200,200" width="200mm" xmlns="http://www.w3.org/2000/svg" xmlns:ev="http://www.w3.org/2001/xml-events" xmlns:xlink="http://www.w3.org/1999/xlink"><defs /><rect fill="#1a1a1a" height="200" width="200" x="0" y="0" /><text alignment-baseline="middle" fill="#e1ed5e" style="dominant-baseline: central; font-size:9.0px; font-family:Arial;" text-anchor="middle" x="100.0" y="100.0">2024</text><line stroke="#e1ed5e" stroke-width="0.3" x1="100.0" x2="100.0" y1="15.0" y2="10.0" /><path d="M 100.0 14.0 a86.0,86.0 0 0,1 42.35913384403234,11.155469271406648" fill="none" id="id97" stroke="none" /><text fill="#e1ed5e" style="font-size:6.75px; font-family:Arial;" text-anchor="middle"><textPath startOffset="22.145653131862478" xlink:href="#id97">January</textPath></text><path d="M 103.23170211078529 79.25015418208739 l 5.627672327046435 -36.13369335937072 a57.5693107893714,57.5693107893714 0 0,0 0.9751761419766192,0.16046486306420957 l -6.247125972076124 36.03176249781084" fill="red" stroke="none" /><path d="M 104.9986988182912 79.60360301121754 l 10.648453731781235 -43.449325019413436 a65.73514738458466,65.73514738458466 0 0,0 1.093691073582021,0.27801199405887606 l -11.39275009858865 43.260127793519295" fill="red" stroke="none" /><path d="M 107.06938296918511 80.22567764915836 l 7.425034447666419 -20.76914283385947 a43.05648273415979,43.05648273415979 0 0,0 0.6938467070884071,0.25479012162117437 l -7.78047030640895 20.63862186322957" fill="red" stroke="none" /><path d="M 107.40779381753099 80.34994680014964 l 11.870440391346529 -31.48775343120382 a54.65094309568157,54.65094309568157 0 0,0 0.8750077595074323,0.33847179868505006 l -12.409220413347487 31.27934174438073" fill="red" stroke="none" /><path d="M 107.74402155503746 80.48000691201159 l 11.668802986806844 -29.413006153036992 a52.64310184074097,52.64310184074097 0 0,0 0.8371394766101332,0.34045733729365085 l -12.171996924607418 29.20836155916405" fill="red" stroke="none" /><path d="M 108.4095320186766 80.7573450057729 l 9.457528708643055 -21.64067651258623 a44.61702202220273,44.61702202220273 0 0,0 0.699183997714383,0.31273610891622594 l -9.82762610921307 21.47513665276015" fill="red" stroke="none" /><line stroke="#e1ed5e" stroke-width="0.3" x1="143.13028292997686" x2="145.6673583964461" y1="26.7553504044142" y2="22.446841604673864" /><path d="M 143.63769802327073 25.89364864446614 a86.0,86.0 0 0,1 29.32050498858742,28.57503671076993" fill="none" id="id98" stroke="none" /><text fill="#e1ed5e" style="font-size:6.75px; font-family:Arial;" text-anchor="middle"><textPath startOffset="20.669276256404974" xlink:href="#id98">February</textPath></text><line stroke="#e1ed5e" stroke-width="0.3" x1="172.87174338648825" x2="177.1583165268699" y1="56.24261187166439" y2="53.66864786411523" /><path d="M 173.72905801456457 55.72781907015455 a86.0,86.0 0 0,1 12.242430191666344,42.057860355516425" fill="none" id="id99" stroke="none" /><text fill="#e1ed5e" style="font-size:6.75px; font-family:Arial;" text-anchor="middle"><textPath startOffset="22.145653131862474" xlink:href="#id99">March</textPath></text><line stroke="#e1ed5e" stroke-width="0.3" x1="184.99686870605535" x2="189.99668451229388" y1="99.2704041080226" y2="99.22748670261217" /><path d="M 185.99683186730306 99.26182062694052 a86.0,86.0 0 0,1 -10.086455211305974,41.156179273409016" fill="none" id="id100" stroke="none" /><text fill="#e1ed5e" style="font-size:6.75px; font-family:Arial;" text-anchor="middle"><textPath startOffset="21.40746469413373" xlink:href="#id100">April</textPath></text><line stroke="#e1ed5e" stroke-width="0.3" x1="174.33088141563837" x2="178.70328620479359" y1="141.23008692659167" y2="143.65538615756765" /><path d="M 175.20536237346943 141.71514677278685 a86.0,86.0 0 0,1 -30.301960400862466,31.631185727798858" fill="none" id="id101" stroke="none" /><text fill="#e1ed5e" style="font-size:6.75px; font-family:Arial;" text-anchor="middle"><textPath startOffset="22.145653131862474" xlink:href="#id101">May</textPath></text><path d="M 115.89218393027572 113.72728997021213 l 33.43903933045939 28.883845746339784 a65.18648997648897,65.18648997648897 0 0,0 -0.7387458758942352,0.840557197057639 l -32.93828239060657 -29.453615221208715" fill="red" stroke="none" /><path d="M 113.59037401385872 116.0094264158162 l 40.77112204157618 48.02827924744859 a84.0,84.0 0 0,0 -1.10730266335242,0.9237512643525192 l -39.94064504406187 -48.721092695712976" fill="red" stroke="none" /><line stroke="#e1ed5e" stroke-width="0.3" x1="143.1302829299769" x2="145.66735839644613" y1="173.24464959558577" y2="177.55315839532614" /><path d="M 143.63769802327073 174.10635135553383 a86.0,86.0 0 0,1 -40.68552437913181,11.842963189579606" fill="none" id="id102" stroke="none" /><text fill="#e1ed5e" style="font-size:6.75px; font-family:Arial;" text-anchor="middle"><textPath startOffset="21.407464694133747" xlink:href="#id102">June</textPath></text><path d="M 106.0420521117495 120.11202640906438 l 13.274406827032676 44.18618306035132 a67.13706373462067,67.13706373462067 0 0,0 -1.1066105909446131,0.32211821510841687 l -12.513936223706457 -44.407544969762256" fill="red" stroke="none" /><line stroke="#e1ed5e" stroke-width="0.3" x1="101.45913802915013" x2="101.54496967792366" y1="184.9874750549273" y2="189.98673829345242" /><path d="M 101.47630435890484 185.9873277026323 a86.0,86.0 0 0,1 -42.54439059252881,-10.42667462771756" fill="none" id="id103" stroke="none" /><text fill="#e1ed5e" style="font-size:6.75px; font-family:Arial;" text-anchor="middle"><textPath startOffset="22.145653131862474" xlink:href="#id103">July</textPath></text><path d="M 93.61358852112213 120.00534299687104 l -5.897783039417511 18.474721369724026 a40.39327652741997,40.39327652741997 0 0,0 -0.6587513696451643,-0.2165446596671567 l 6.214057146710419 -18.370755788654847" fill="red" stroke="none" /><line stroke="#e1ed5e" stroke-width="0.3" x1="58.13341422392154" x2="55.67067388415222" y1="173.97424548756322" y2="178.32567169271397" /><path d="M 57.64086615596768 174.84453072859336 a86.0,86.0 0 0,1 -31.369924170532247,-30.572349798747897" fill="none" id="id104" stroke="none" /><text fill="#e1ed5e" style="font-size:6.75px; font-family:Arial;" text-anchor="middle"><textPath startOffset="22.145653131862474" xlink:href="#id104">August</textPath></text><path d="M 86.68645165197938 116.24036423190432 l -21.290796758832553 25.971310210646887 a54.58283759129901,54.58283759129901 0 0,0 -0.7195204933116487,-0.6002495861536985 l 21.733491586306094 -25.60199844058132" fill="red" stroke="none" /><path d="M 85.86807049272751 115.53346607816431 l -27.329099843070633 30.039468081173297 a61.61095099640431,61.61095099640431 0 0,0 -0.7762106378420308,-0.718448978234626 l 27.84074025222663 -29.565901356806293" fill="red" stroke="none" /><path d="M 84.83555147118756 114.52719865689866 l -7.48813146409502 7.173460554216456 a31.369698604418033,31.369698604418033 0 0,0 -0.36918276226352015,-0.3920592998903296 l 7.610170060094794 -7.043859794381636" fill="red" stroke="none" /><line stroke="#e1ed5e" stroke-width="0.3" x1="26.387840678322732" x2="22.057713659400548" y1="142.50000000000003" y2="145.00000000000006" /><path d="M 25.521815274538298 143.00000000000003 a86.0,86.0 0 0,1 -11.493303480769221,-40.785679425670985" fill="none" id="id105" stroke="none" /><text fill="#e1ed5e" style="font-size:6.75px; font-family:Arial;" text-anchor="middle"><textPath startOffset="21.40746469413373" xlink:href="#id105">September</textPath></text><line stroke="#e1ed5e" stroke-width="0.3" x1="15.003131293944662" x2="10.003315487706104" y1="100.72959589197737" y2="100.7725132973878" /><path d="M 14.003168132696942 100.73817937305945 a86.0,86.0 0 0,1 10.791469493833604,-42.45332614584628" fill="none" id="id106" stroke="none" /><text fill="#e1ed5e" style="font-size:6.75px; font-family:Arial;" text-anchor="middle"><textPath startOffset="22.145653131862435" xlink:href="#id106">October</textPath></text><path d="M 79.00077361379809 100.18025310272382 l -39.05853967071418 0.3352705873076254 a60.059978591589974,60.059978591589974 0 0,0 0.0,-1.0310473800628714 l 39.05853967071418 0.335270587307611" fill="red" stroke="none" /><path d="M 79.56144815229197 95.17655741523228 l -37.81963146073631 -8.925330047216281 a59.85853883353899,59.85853883353899 0 0,0 0.2446004417345809,-0.9980532723824987 l 37.660843492485434 9.573239144206898" fill="red" stroke="none" /><path d="M 79.73907114497095 94.47779374421319 l -38.84127506056951 -10.586362237236417 a61.25811363872883,61.25811363872883 0 0,0 0.28523384401245316,-1.0121942871089362 l 38.653822724482474 11.251564448248365" fill="red" stroke="none" /><path d="M 80.28708602549916 92.7611449362534 l -35.75614024774671 -13.130149973121314 a59.09071282784282,59.09071282784282 0 0,0 0.35783454967782424,-0.9491986563223868 l 35.52547501425445 13.742016909637847" fill="red" stroke="none" /><path d="M 80.9802524753101 91.09779779509293 l -36.01238841238193 -16.855616149084668 a60.761839933905776,60.761839933905776 0 0,0 0.4502763151540902,-0.9409043189537375 l 35.71773283926793 17.471332970103493" fill="red" stroke="none" /><path d="M 81.29705330413844 90.45014215332179 l -34.75486967567528 -17.746084094650577 a60.023383590708576,60.023383590708576 0 0,0 0.4764482722568151,-0.9136523841119291 l 34.445113334443526 18.340082721866995" fill="red" stroke="none" /><line stroke="#e1ed5e" stroke-width="0.3" x1="26.387840678322718" x2="22.05771365940052" y1="57.49999999999999" y2="54.99999999999999" /><path d="M 25.521815274538284 56.99999999999999 a86.0,86.0 0 0,1 29.574782752854787,-30.34633250058573" fill="none" id="id107" stroke="none" /><text fill="#e1ed5e" style="font-size:6.75px; font-family:Arial;" text-anchor="middle"><textPath startOffset="21.40746469413373" xlink:href="#id107">November</textPath></text><path d="M 86.13680546590413 84.22622945171909 l -26.078297636342878 -29.672315583089123 a60.50346718545247,60.50346718545247 0 0,0 0.7860279711279315,-0.6789522404038435 l 25.565090185452096 30.11561195595768" fill="red" stroke="none" /><line stroke="#e1ed5e" stroke-width="0.3" x1="56.869717070023135" x2="54.33264160355391" y1="26.7553504044142" y2="22.446841604673864" /><path d="M 56.362301976729285 25.89364864446614 a86.0,86.0 0 0,1 42.16139366436587,-11.88097634709845" fill="none" id="id108" stroke="none" /><text fill="#e1ed5e" style="font-size:6.75px; font-family:Arial;" text-anchor="middle"><textPath startOffset="22.145653131862474" xlink:href="#id108">December</textPath></text><path d="M 89.97174638481275 81.54914285379989 l -18.836943987143904 -34.65785528712672 a60.44613278736224,60.44613278736224 0 0,0 0.9159350235899651,-0.48768380981627996 l 18.239220147767377 34.97610956466558" fill="red" stroke="none" /></svg>