<svg xmlns="http://www.w3.org/2000/svg" xmlns:ev="http://www.w3.org/2001/xml-events" xmlns:xlink="http://www.w3.org/1999/xlink" width="200mm" height="200mm" baseProfile="full" version="1.1" viewBox="0 0 200 200"><rect width="200" height="200" x="0" y="0" fill="#1a1a1a"/><text style="dominant-baseline:central;font-size:9px;font-family:Arial" x="100" y="100" fill="#e1ed5e" alignment-baseline="middle" text-anchor="middle">2019</text><line x1="100" x2="100" y1="15" y2="10" stroke="#e1ed5e" stroke-width=".3"/><path id="id37" fill="none" stroke="none" d="M 100.0 14.0 a86.0,86.0 0 0,1 42.46469731375804,11.215312516191453"/><text fill="#e1ed5e" text-anchor="middle" style="font-size:6.75px;font-family:Arial"><textPath startOffset="22.206" xlink:href="#id37">January</textPath></text><path fill="#ff1f03" stroke="none" d="M 105.01212808612495 79.60689891045804 l 1.2048698650347882 -4.902315450679937 a26.048208411866945,26.048208411866945 0 0,0 0.43449789868366434,0.1107631888737434 l -1.2890766524034776 4.880849265637326"/><path fill="red" stroke="none" d="M 106.74666289553966 80.11325718540242 l 0.9556669929876233 -2.8169635863249263 a23.974656828638658,23.974656828638658 0 0,0 0.3896658010486523,0.13594674669730483 l -1.004014798099549 2.800095986455414"/><line x1="143.237" x2="145.78" y1="26.818" y2="22.514" stroke="#e1ed5e" stroke-width=".3"/><path id="id38" fill="none" stroke="none" d="M 143.74570117128098 25.957352633546492 a86.0,86.0 0 0,1 28.547481713284135,27.462654790039103"/><text fill="#e1ed5e" text-anchor="middle" style="font-size:6.75px;font-family:Arial"><textPath startOffset="19.986" xlink:href="#id38">February</textPath></text><line x1="172.234" x2="176.484" y1="55.198" y2="52.563" stroke="#e1ed5e" stroke-width=".3"/><path id="id39" fill="none" stroke="none" d="M 173.08426987136738 54.67131705675599 a86.0,86.0 0 0,1 12.851231095245387,41.99856678651699"/><text fill="#e1ed5e" text-anchor="middle" style="font-size:6.75px;font-family:Arial"><textPath startOffset="22.206" xlink:href="#id39">March</textPath></text><path fill="red" stroke="none" d="M 120.18372546131832 94.20196356495316 l 2.8622655367073966 -0.8222228299930735 a23.978021891253437,23.978021891253437 0 0,0 0.11054236832012797,0.397679713861738 l -2.8759946755938874 0.7728318127123837"/><path fill="#ffee16" stroke="none" d="M 120.83666639777658 97.38593545837742 l 19.905009668790058 -2.497183521707241 a41.061040238624514,41.061040238624514 0 0,0 0.08194541436696118,0.7020582670749198 l -19.94504543616061 2.1541815163074682"/><line x1="184.98" x2="189.979" y1="98.171" y2="98.064" stroke="#e1ed5e" stroke-width=".3"/><path id="id40" fill="none" stroke="none" d="M 185.9800911702706 98.14961562048488 a86.0,86.0 0 0,1 -9.607161424134198,41.387399972396054"/><text fill="#e1ed5e" text-anchor="middle" style="font-size:6.75px;font-family:Arial"><textPath startOffset="21.466" xlink:href="#id40">April</textPath></text><path fill="#ffbd11" stroke="none" d="M 120.9904718944345 100.63252640178507 l 16.26383637134336 0.490094074631766 a37.27121893761559,37.27121893761559 0 0,0 -0.024843693864879175,0.6411053481804387 l -16.252990544627277 -0.7699766698262109"/><path fill="#fdff18" stroke="none" d="M 120.89721153311464 102.0752229133903 l 21.510362934908194 2.136112656328635 a42.61616734927817,42.61616734927817 0 0,0 -0.07877435882595224,0.7293527282144683 l -21.47040627458119 -2.5060617064278943"/><path fill="#fffd17" stroke="none" d="M 120.8583938346157 102.4346265915055 l 21.10233851324438 2.463100222128976 a42.24560080185564,42.24560080185564 0 0,0 -0.09052325128779269,0.7215593793851338 l -21.05681375270974 -2.8259773558015047"/><path fill="#fff617" stroke="none" d="M 120.76222939487914 103.15116336523771 l 20.46477970561444 3.106018282501865 a41.69914389462918,41.69914389462918 0 0,0 -0.11381532250839692,0.708728121904997 l -20.408282628744757 -3.4578256341000673"/><path fill="#fff717" stroke="none" d="M 120.64145759157962 103.86396538481128 l 20.41899449488829 3.822321537655647 a41.773672716193076,41.773672716193076 0 0,0 -0.13839034336753445,0.7056493793345623 l -20.350174218545092 -4.173234644058154"/><path fill="#fbff18" stroke="none" d="M 120.49622156327973 104.57218783832717 l 21.22898086175302 4.7356478761959515 a42.75076985386943,42.75076985386943 0 0,0 -0.16640113018516522,0.7168517137155018 l -21.1443191656373 -5.100368247260018"/><path fill="#e7ff1a" stroke="none" d="M 120.32669344350535 105.2749913415812 l 22.5827613064562 5.860464747581127 a44.330798427872466,44.330798427872466 0 0,0 -0.198036070372554,0.7369658890827347 l -22.478537159741865 -6.24832156983941"/><path fill="#f1ff19" stroke="none" d="M 119.79798401119884 107.00284435728193 l 21.267417002563263 7.522604880684689 a43.558648234143334,43.558648234143334 0 0,0 -0.25611601334877254,0.7047212712850093 l -21.134776728209264 -7.887573948975829"/><path fill="#fffc17" stroke="none" d="M 119.26925614724726 108.34839909993367 l 19.414817832620567 8.411463653846349 a42.158635879324066,42.158635879324066 0 0,0 -0.2942249496991893,0.6633995884534143 l -19.267151798190106 -8.74441157879245"/><path fill="#fff617" stroke="none" d="M 119.12269723197855 108.67885076344098 l 18.884068307334783 8.570548843492146 a41.73794452964832,41.73794452964832 0 0,0 -0.3025511713496943,0.6516683068714757 l -18.733742519145256 -8.894337217642452"/><path fill="#ffd113" stroke="none" d="M 118.64920377521936 109.65438752849418 l 15.855477680439444 8.208121259297673 a38.854115130194714,38.854115130194714 0 0,0 -0.312585966494649,0.5912948475107085 l -15.711839205719901 -8.479831121894517"/><line x1="174.801" x2="179.201" y1="140.371" y2="142.746" stroke="#e1ed5e" stroke-width=".3"/><path id="id41" fill="none" stroke="none" d="M 175.68104954172406 140.8457921977663 a86.0,86.0 0 0,1 -30.038265399797805,32.042727171017184"/><text fill="#e1ed5e" text-anchor="middle" style="font-size:6.75px;font-family:Arial"><textPath startOffset="22.206" xlink:href="#id41">May</textPath></text><line x1="143.865" x2="146.446" y1="172.807" y2="177.09" stroke="#e1ed5e" stroke-width=".3"/><path id="id42" fill="none" stroke="none" d="M 144.38136562736335 173.6633856474863 a86.0,86.0 0 0,1 -40.68145358897372,12.25698825130547"/><text fill="#e1ed5e" text-anchor="middle" style="font-size:6.75px;font-family:Arial"><textPath startOffset="21.466" xlink:href="#id42">June</textPath></text><line x1="102.195" x2="102.324" y1="184.972" y2="189.97" stroke="#e1ed5e" stroke-width=".3"/><path id="id43" fill="none" stroke="none" d="M 102.22038585953345 185.97133177190398 a86.0,86.0 0 0,1 -42.740103519485714,-10.115201625700543"/><text fill="#e1ed5e" text-anchor="middle" style="font-size:6.75px;font-family:Arial"><textPath startOffset="22.206" xlink:href="#id43">July</textPath></text><path fill="#ffb510" stroke="none" d="M 96.93821686468263 120.77559828337769 l -2.293647455221846 15.563446536667053 a36.73155067844678,36.73155067844678 0 0,0 -0.624723456018449,-0.09756895574330128 l 2.561206774848812 -15.521659273576647"/><line x1="58.667" x2="56.235" y1="174.274" y2="178.643" stroke="#e1ed5e" stroke-width=".3"/><path id="id44" fill="none" stroke="none" d="M 58.180547188652646 175.14741091055294 a86.0,86.0 0 0,1 -31.652253787137756,-30.449443065178592"/><text fill="#e1ed5e" text-anchor="middle" style="font-size:6.75px;font-family:Arial"><textPath startOffset="22.206" xlink:href="#id44">August</textPath></text><path fill="#ffb911" stroke="none" d="M 86.24171649860922 115.8653595955263 l -10.476593761222043 12.081080270022996 a36.99098237533941,36.99098237533941 0 0,0 -0.47746136411111345,-0.4213041403471579 l 10.682997478239743 -11.898952987903549"/><path fill="#ffa00e" stroke="none" d="M 85.18274418774928 114.88116024355367 l -9.965529938638925 10.00850965981203 a35.12381154534637,35.12381154534637 0 0,0 -0.4247629155106385,-0.4302825908415255 l 10.136333479205096 -9.835486574989838"/><path fill="#ffe115" stroke="none" d="M 84.19399662182784 113.82643327865904 l -14.338148790938376 12.54241523642649 a40.04979503076164,40.04979503076164 0 0,0 -0.4494301994835231,-0.5227888567532624 l 14.551921499992678 -12.293749280511696"/><path fill="#ff5b08" stroke="none" d="M 82.05923443525364 110.91462005526583 l -7.817235581354038 4.755770089356867 a30.150219739285447,30.150219739285447 0 0,0 -0.2659236808388731,-0.44570338498749595 l 7.897940137891143 -4.62050461048326"/><line x1="26.633" x2="22.317" y1="142.922" y2="145.446" stroke="#e1ed5e" stroke-width=".3"/><path id="id45" fill="none" stroke="none" d="M 25.769776987707644 143.4266507060508 a86.0,86.0 0 0,1 -11.730757126820373,-40.83630448921669"/><text fill="#e1ed5e" text-anchor="middle" style="font-size:6.75px;font-family:Arial"><textPath startOffset="21.466" xlink:href="#id45">September</textPath></text><path fill="#ffcf13" stroke="none" d="M 80.0844068197444 106.66101706037122 l -16.797123384035793 5.618006173029634 a38.7117290894684,38.7117290894684 0 0,0 -0.20592381504063312,-0.6337683354628811 l 16.891339450092676 -5.328038937588949"/><path fill="#ffb110" stroke="none" d="M 79.35854240842038 103.8639653848113 l -15.143012370974208 2.834687199952522 a36.40604670864828,36.40604670864828 0 0,0 -0.11000443733473347,-0.6169633039780346 l 15.189563250648131 -2.573605145241274"/><path fill="#ffb811" stroke="none" d="M 79.23777060512086 103.15116336523772 l -15.735286251149134 2.388204880752335 a36.91548792711214,36.91548792711214 0 0,0 -0.08994361771314166,-0.6290654527985683 l 15.774063919878873 -2.116993955973366"/><path fill="#9dff22" stroke="none" d="M 79.1416061653843 102.43462659150553 l -29.380724220531672 3.42936723854006 a50.58018788614616,50.58018788614616 0 0,0 -0.09349554682783665,-0.8656526460018914 l 29.435402068860558 -2.923118270653387"/><line x1="15.007" x2="10.008" y1="101.097" y2="101.162" stroke="#e1ed5e" stroke-width=".3"/><path id="id46" fill="none" stroke="none" d="M 14.007167355692545 101.11028546245083 a86.0,86.0 0 0,1 10.666146001902534,-42.60595125391555"/><text fill="#e1ed5e" text-anchor="middle" style="font-size:6.75px;font-family:Arial"><textPath startOffset="22.206" xlink:href="#id46">October</textPath></text><path fill="#9dff22" stroke="none" d="M 79.03285615573316 98.82574320788736 l -29.5350467596229 -1.6540988854013583 a50.58132908129378,50.58132908129378 0 0,0 0.0561679381136695,-0.8688931421005841 l 29.502198230504817 2.1622510917549542"/><path fill="#98ff23" stroke="none" d="M 79.62865764111835 94.90015583598534 l -29.144809410191773 -7.296229358056185 a51.04421539001749,51.04421539001749 0 0,0 0.22071438067693802,-0.850502543810515 l 29.014898697644526 7.7968283274155645"/><path fill="#74ff27" stroke="none" d="M 80.38941819471856 92.48833698450439 l -31.08755856913438 -11.907819271477718 a54.29012552682156,54.29012552682156 0 0,0 0.34178594154183156,-0.869807940849192 l 30.877979077710858 12.441176217222674"/><path fill="#35ff66" stroke="none" d="M 81.43458229118936 90.18545643968196 l -39.17450883414846 -20.70946797089033 a65.31167121689396,65.31167121689396 0 0,0 0.5339754749736546,-0.9893754583062453 l 38.812225259956335 21.380724412529048"/><line x1="26.266" x2="21.929" y1="57.711" y2="55.224" stroke="#e1ed5e" stroke-width=".3"/><path id="id47" fill="none" stroke="none" d="M 25.398753493254645 57.213857153982495 a86.0,86.0 0 0,1 29.58750427330803,-30.492523968695096"/><text fill="#e1ed5e" text-anchor="middle" style="font-size:6.75px;font-family:Arial"><textPath startOffset="21.466" xlink:href="#id47">November</textPath></text><path fill="#39ff8b" stroke="none" d="M 82.34701348167596 88.62581576622439 l -39.97760602959511 -25.758398202701578 a68.55737652379975,68.55737652379975 0 0,0 0.6477149606359904,-0.9865143222178023 l 39.528294433601204 26.442730588897046"/><path fill="#41ffcc" stroke="none" d="M 84.5562425177563 85.77008943001954 l -39.23888467097083 -36.15479072211976 a74.3559646373489,74.3559646373489 0 0,0 0.8753916316553261,-0.9338067577334814 l 38.610725717345055 36.824866896731294"/><path fill="#4cd8ff" stroke="none" d="M 85.83668400450813 84.49514656593479 l -42.08667944140159 -46.073094498006036 a83.4020722654744,83.4020722654744 0 0,0 1.0682971929113994,-0.9591277677527767 l 41.28737126089422 46.79072127452809"/><path fill="#32ff48" stroke="none" d="M 88.09926311788651 82.69761687909137 l -23.725454080891343 -34.494241851703215 a62.865855924228725,62.865855924228725 0 0,0 0.8968721579530363,-0.6055720846009449 l 23.12817722853177 34.897525848602825"/><line x1="56.763" x2="54.22" y1="26.818" y2="22.514" stroke="#e1ed5e" stroke-width=".3"/><path id="id48" fill="none" stroke="none" d="M 56.25429882871897 25.957352633546506 a86.0,86.0 0 0,1 42.265352541879196,-11.944610805530505"/><text fill="#e1ed5e" text-anchor="middle" style="font-size:6.75px;font-family:Arial"><textPath startOffset="22.206" xlink:href="#id48">December</textPath></text><path fill="#4dd2ff" stroke="none" d="M 89.3179101791058 81.91981866633112 l -32.046269462682616 -54.240544001006626 a84.0,84.0 0 0,0 1.2512130701387194,-0.7247833704398112 l 31.107859660078574 54.78413152883649"/></svg>