<svg xmlns="http://www.w3.org/2000/svg" xmlns:ev="http://www.w3.org/2001/xml-events" xmlns:xlink="http://www.w3.org/1999/xlink" width="200mm" height="200mm" baseProfile="full" version="1.1" viewBox="0 0 200 200"><rect width="200" height="200" x="0" y="0" fill="#1a1a1a"/><text style="dominant-baseline:central;font-size:9px;font-family:Arial" x="100" y="100" fill="#e1ed5e" alignment-baseline="middle" text-anchor="middle">2016</text><line x1="100" x2="100" y1="15" y2="10" stroke="#e1ed5e" stroke-width=".3"/><path id="id1" fill="none" stroke="none" d="M 100.0 14.0 a86.0,86.0 0 0,1 42.35913384403234,11.155469271406648"/><text fill="#e1ed5e" text-anchor="middle" style="font-size:6.75px;font-family:Arial"><textPath startOffset="22.146" xlink:href="#id1">January</textPath></text><line x1="143.13" x2="145.667" y1="26.755" y2="22.447" stroke="#e1ed5e" stroke-width=".3"/><path id="id2" fill="none" stroke="none" d="M 143.63769802327073 25.89364864446614 a86.0,86.0 0 0,1 29.32050498858742,28.57503671076993"/><text fill="#e1ed5e" text-anchor="middle" style="font-size:6.75px;font-family:Arial"><textPath startOffset="20.669" xlink:href="#id2">February</textPath></text><line x1="172.872" x2="177.158" y1="56.243" y2="53.669" stroke="#e1ed5e" stroke-width=".3"/><path id="id3" fill="none" stroke="none" d="M 173.72905801456457 55.72781907015455 a86.0,86.0 0 0,1 12.242430191666344,42.057860355516425"/><text fill="#e1ed5e" text-anchor="middle" style="font-size:6.75px;font-family:Arial"><textPath startOffset="22.146" xlink:href="#id3">March</textPath></text><line x1="184.997" x2="189.997" y1="99.27" y2="99.227" stroke="#e1ed5e" stroke-width=".3"/><path id="id4" fill="none" stroke="none" d="M 185.99683186730306 99.26182062694052 a86.0,86.0 0 0,1 -10.086455211305974,41.156179273409016"/><text fill="#e1ed5e" text-anchor="middle" style="font-size:6.75px;font-family:Arial"><textPath startOffset="21.407" xlink:href="#id4">April</textPath></text><path fill="red" stroke="none" d="M 120.7213421655516 103.40968896794604 l 45.7095056032879 7.521481752514143 a67.32420091324201,67.32420091324201 0 0,0 -0.19743681906816637,1.1387631055922702 l -45.573653966727505 -8.305037891027002"/><path fill="red" stroke="none" d="M 120.65975698304385 103.76489593502545 l 50.58930408072512 9.219056421893448 a72.42245315698315,72.42245315698315 0 0,0 -0.2333855203406996,1.2211716617563175 l -50.42359226810227 -10.086130648683081"/><path fill="red" stroke="none" d="M 120.51834098615036 104.47187691870673 l 44.87263067290787 9.779781002921947 a66.92599590615652,66.92599590615652 0 0,0 -0.2542841691784538,1.1204229679782163 l -44.69813564217175 -10.54863830483918"/><path fill="red" stroke="none" d="M 120.26092885502905 105.52220625578681 l 44.17197256309372 12.039267546108237 a66.78326247834987,66.78326247834987 0 0,0 -0.31096038615772337,1.103488709328235 l -43.95879368486141 -12.79576417933948"/><path fill="red" stroke="none" d="M 120.16314734710363 105.8691983318838 l 47.608602888164796 13.858170445531819 a70.58455361360416,70.58455361360416 0 0,0 -0.3486328405573392,1.1604853395291443 l -47.363693727603824 -14.673393388651688"/><path fill="red" stroke="none" d="M 119.94978838288452 106.5578916946017 l 52.062992853500475 17.114139853382834 a75.80373169579593,75.80373169579593 0 0,0 -0.4169731480991153,1.2327070210821105 l -51.76153428382899 -18.005348548939107"/><path fill="red" stroke="none" d="M 119.83427380445688 106.89939002012753 l 46.28212857850164 16.099326810393254 a70.00228310502283,70.00228310502283 0 0,0 -0.40454596067434834,1.1315870517943647 l -45.99894244778335 -16.89144881856854"/><path fill="red" stroke="none" d="M 119.16976305983485 108.57439118712176 l 47.05964035047789 21.049178554308835 a72.55266887104393,72.55266887104393 0 0,0 -0.51828702128017,1.1325506774122653 l -46.69136886434267 -21.85391821393579"/><path fill="red" stroke="none" d="M 118.5362547648365 109.86951160357373 l 55.608764294509484 29.608534810721164 a84.0,84.0 0 0,0 -0.6886186015386442,1.2669806661015868 l -55.092300343355504 -30.558770310297355"/><line x1="174.331" x2="178.703" y1="141.23" y2="143.655" stroke="#e1ed5e" stroke-width=".3"/><path id="id5" fill="none" stroke="none" d="M 175.20536237346943 141.71514677278685 a86.0,86.0 0 0,1 -30.301960400862466,31.631185727798858"/><text fill="#e1ed5e" text-anchor="middle" style="font-size:6.75px;font-family:Arial"><textPath startOffset="22.146" xlink:href="#id5">May</textPath></text><path fill="red" stroke="none" d="M 117.81537515405839 111.11811171558189 l 19.686797021693458 12.28601737074907 a44.20595181861124,44.20595181861124 0 0,0 -0.40728902865426625,0.6403260019540492 l -19.4729903014133 -12.62215704738179"/><path fill="red" stroke="none" d="M 117.01052211995028 112.31430620078461 l 32.074803585715 23.219684257738297 a60.59730751062824,60.59730751062824 0 0,0 -0.6172210331038622,0.8373788721370471 l -31.671480533027314 -23.766869439144223"/><path fill="red" stroke="none" d="M 116.79662413953412 112.60449989151573 l 38.199911767292406 28.665925946003984 a68.75948669500866,68.75948669500866 0 0,0 -0.7165656048255076,0.93800737878153 l -37.702194185112596 -29.31745423802639"/><path fill="red" stroke="none" d="M 116.1254893667686 113.45245675266167 l 39.44325336948952 32.90496480874638 a72.36639899228467,72.36639899228467 0 0,0 -0.8039749668720612,0.9470804894089884 l -38.87258383911035 -33.57721208060492"/><path fill="red" stroke="none" d="M 115.16444852881244 114.52719865689866 l 33.75090652855488 32.332604977962326 a67.73886002204378,67.73886002204378 0 0,0 -0.8116186312640068,0.8327922153757922 l -33.19090109614007 -32.90721988540585"/><path fill="red" stroke="none" d="M 113.86319453409587 115.77377054828091 l 32.8475313577887 37.37446094699935 a70.75751850102345,70.75751850102345 0 0,0 -0.9192430003875519,0.7940202098572606 l -32.20110887763828 -37.93282528932133"/><path fill="red" stroke="none" d="M 113.03279911837588 116.46651593811092 l 29.5599589304075 37.34804246089825 a68.6305306250984,68.6305306250984 0 0,0 -0.9300745957290596,0.7232316311448203 l -28.91447439004321 -37.84997514366386"/><path fill="red" stroke="none" d="M 112.45986205192187 116.90419585922612 l 30.380787349797657 41.21737283915307 a72.20414108014486,72.20414108014486 0 0,0 -1.0040466821447325,0.7268523680005783 l -29.668759657278954 -41.732825978526726"/><path fill="red" stroke="none" d="M 111.27062007382361 117.71928675628689 l 21.64332400699886 34.02690019956777 a61.32695638482129,61.32695638482129 0 0,0 -0.8931420540298559,0.5573866982153369 l -21.05601782417929 -34.393422694624654"/><line x1="143.13" x2="145.667" y1="173.245" y2="177.553" stroke="#e1ed5e" stroke-width=".3"/><path id="id6" fill="none" stroke="none" d="M 143.63769802327073 174.10635135553383 a86.0,86.0 0 0,1 -40.68552437913181,11.842963189579606"/><text fill="#e1ed5e" text-anchor="middle" style="font-size:6.75px;font-family:Arial"><textPath startOffset="21.407" xlink:href="#id6">June</textPath></text><path fill="red" stroke="none" d="M 110.34350942703117 118.27599006163325 l 20.175935281740486 35.64894442205588 a61.96236813100299,61.96236813100299 0 0,0 -0.9301903175671565,0.5159608889488944 l -19.561000776017234 -35.99003822643792"/><path fill="red" stroke="none" d="M 108.73861861582097 119.09545874513695 l 16.34214917726368 35.71054524067877 a60.27224059203275,60.27224059203275 0 0,0 -0.9445136456523339,0.4224689399717279 l -15.726722128755718 -35.98581793156035"/><path fill="red" stroke="none" d="M 106.72888874123015 119.89276391827305 l 16.54059648509022 48.89933443678303 a72.62108329396946,72.62108329396946 0 0,0 -1.1843366569321203,0.3893149830486808 l -15.698737090510365 -49.176070341233725"/><path fill="red" stroke="none" d="M 102.15924093988457 120.88869738790638 l 4.818258951353182 46.612284582177466 a67.8606518658479,67.8606518658479 0 0,0 -1.1597722658871565,0.10983163939019287 l -4.01738712208101 -46.688127977072845"/><line x1="101.459" x2="101.545" y1="184.987" y2="189.987" stroke="#e1ed5e" stroke-width=".3"/><path id="id7" fill="none" stroke="none" d="M 101.47630435890484 185.9873277026323 a86.0,86.0 0 0,1 -42.54439059252881,-10.42667462771756"/><text fill="#e1ed5e" text-anchor="middle" style="font-size:6.75px;font-family:Arial"><textPath startOffset="22.146" xlink:href="#id7">July</textPath></text><line x1="58.133" x2="55.671" y1="173.974" y2="178.326" stroke="#e1ed5e" stroke-width=".3"/><path id="id8" fill="none" stroke="none" d="M 57.64086615596768 174.84453072859336 a86.0,86.0 0 0,1 -31.369924170532247,-30.572349798747897"/><text fill="#e1ed5e" text-anchor="middle" style="font-size:6.75px;font-family:Arial"><textPath startOffset="22.146" xlink:href="#id8">August</textPath></text><line x1="26.388" x2="22.058" y1="142.5" y2="145" stroke="#e1ed5e" stroke-width=".3"/><path id="id9" fill="none" stroke="none" d="M 25.521815274538298 143.00000000000003 a86.0,86.0 0 0,1 -11.493303480769221,-40.785679425670985"/><text fill="#e1ed5e" text-anchor="middle" style="font-size:6.75px;font-family:Arial"><textPath startOffset="21.407" xlink:href="#id9">September</textPath></text><path fill="red" stroke="none" d="M 80.83023694016515 108.57439118712176 l -30.213315068437545 13.514031532259121 a54.097937332703516,54.097937332703516 0 0,0 -0.3719004382672261,-0.8509809832324328 l 30.44084938872174 -12.99338847925084"/><line x1="15.003" x2="10.003" y1="100.73" y2="100.773" stroke="#e1ed5e" stroke-width=".3"/><path id="id10" fill="none" stroke="none" d="M 14.003168132696942 100.73817937305945 a86.0,86.0 0 0,1 10.791469493833604,-42.45332614584628"/><text fill="#e1ed5e" text-anchor="middle" style="font-size:6.75px;font-family:Arial"><textPath startOffset="22.146" xlink:href="#id10">October</textPath></text><path fill="red" stroke="none" d="M 79.0935383218832 98.0201363427161 l -50.31715110410378 -4.765086524103364 a71.54227680680208,71.54227680680208 0 0,0 0.12628100179251003,-1.2216541394525373 l 50.227937709829604 5.6281451858388145"/><line x1="26.388" x2="22.058" y1="57.5" y2="55" stroke="#e1ed5e" stroke-width=".3"/><path id="id11" fill="none" stroke="none" d="M 25.521815274538284 56.99999999999999 a86.0,86.0 0 0,1 29.574782752854787,-30.34633250058573"/><text fill="#e1ed5e" text-anchor="middle" style="font-size:6.75px;font-family:Arial"><textPath startOffset="21.407" xlink:href="#id11">November</textPath></text><line x1="56.87" x2="54.333" y1="26.755" y2="22.447" stroke="#e1ed5e" stroke-width=".3"/><path id="id12" fill="none" stroke="none" d="M 56.362301976729285 25.89364864446614 a86.0,86.0 0 0,1 42.16139366436587,-11.88097634709845"/><text fill="#e1ed5e" text-anchor="middle" style="font-size:6.75px;font-family:Arial"><textPath startOffset="22.146" xlink:href="#id12">December</textPath></text></svg>