<svg xmlns="http://www.w3.org/2000/svg" xmlns:ev="http://www.w3.org/2001/xml-events" xmlns:xlink="http://www.w3.org/1999/xlink" width="200mm" height="200mm" baseProfile="full" version="1.1" viewBox="0 0 200 200"><rect width="200" height="200" x="0" y="0" fill="#1a1a1a"/><text style="dominant-baseline:central;font-size:9px;font-family:Arial" x="100" y="100" fill="#e1ed5e" alignment-baseline="middle" text-anchor="middle">2017</text><line x1="100" x2="100" y1="15" y2="10" stroke="#e1ed5e" stroke-width=".3"/><path id="id13" fill="none" stroke="none" d="M 100.0 14.0 a86.0,86.0 0 0,1 42.46469731375804,11.215312516191453"/><text fill="#e1ed5e" text-anchor="middle" style="font-size:6.75px;font-family:Arial"><textPath startOffset="22.206" xlink:href="#id13">January</textPath></text><line x1="143.237" x2="145.78" y1="26.818" y2="22.514" stroke="#e1ed5e" stroke-width=".3"/><path id="id14" fill="none" stroke="none" d="M 143.74570117128098 25.957352633546492 a86.0,86.0 0 0,1 28.547481713284135,27.462654790039103"/><text fill="#e1ed5e" text-anchor="middle" style="font-size:6.75px;font-family:Arial"><textPath startOffset="19.986" xlink:href="#id14">February</textPath></text><path fill="#ff0f01" stroke="none" d="M 111.90073688211348 82.69761687909136 l 5.606293140138675 -8.150943320542897 a30.892845889220595,30.892845889220595 0 0,0 0.4355433179733064,0.30512592798010457 l -5.745767597695632 8.053232549798857"/><line x1="172.234" x2="176.484" y1="55.198" y2="52.563" stroke="#e1ed5e" stroke-width=".3"/><path id="id15" fill="none" stroke="none" d="M 173.08426987136738 54.67131705675599 a86.0,86.0 0 0,1 12.851231095245387,41.99856678651699"/><text fill="#e1ed5e" text-anchor="middle" style="font-size:6.75px;font-family:Arial"><textPath startOffset="22.206" xlink:href="#id15">March</textPath></text><path fill="#ff800b" stroke="none" d="M 120.98425023603335 99.18683210126433 l 16.96946191331206 -0.6575894554968548 a37.98219837121594,37.98219837121594 0 0,0 0.019693418148195217,0.6535286732355188 l -16.9782670259159 0.36539063483633694"/><line x1="184.98" x2="189.979" y1="98.171" y2="98.064" stroke="#e1ed5e" stroke-width=".3"/><path id="id16" fill="none" stroke="none" d="M 185.9800911702706 98.14961562048488 a86.0,86.0 0 0,1 -9.607161424134198,41.387399972396054"/><text fill="#e1ed5e" text-anchor="middle" style="font-size:6.75px;font-family:Arial"><textPath startOffset="21.466" xlink:href="#id16">April</textPath></text><line x1="174.801" x2="179.201" y1="140.371" y2="142.746" stroke="#e1ed5e" stroke-width=".3"/><path id="id17" fill="none" stroke="none" d="M 175.68104954172406 140.8457921977663 a86.0,86.0 0 0,1 -30.038265399797805,32.042727171017184"/><text fill="#e1ed5e" text-anchor="middle" style="font-size:6.75px;font-family:Arial"><textPath startOffset="22.206" xlink:href="#id17">May</textPath></text><line x1="143.865" x2="146.446" y1="172.807" y2="177.09" stroke="#e1ed5e" stroke-width=".3"/><path id="id18" fill="none" stroke="none" d="M 144.38136562736335 173.6633856474863 a86.0,86.0 0 0,1 -40.68145358897372,12.25698825130547"/><text fill="#e1ed5e" text-anchor="middle" style="font-size:6.75px;font-family:Arial"><textPath startOffset="21.466" xlink:href="#id18">June</textPath></text><path fill="#b9ff1f" stroke="none" d="M 107.93186726928326 119.44442032107085 l 11.639626576757026 28.53373409502625 a51.81647105448663,51.81647105448663 0 0,0 -0.8287647876708929,0.3297826127701775 l -11.146740713044267 -28.7298635522025"/><path fill="#ffa20f" stroke="none" d="M 107.59598834532513 119.57807347666477 l 6.956124573052758 17.928874007274572 a40.23102161208692,40.23102161208692 0 0,0 -0.647776497918265,0.24493364348110783 l -6.6464778543742185 -18.04595590086231"/><line x1="102.195" x2="102.324" y1="184.972" y2="189.97" stroke="#e1ed5e" stroke-width=".3"/><path id="id19" fill="none" stroke="none" d="M 102.22038585953345 185.97133177190398 a86.0,86.0 0 0,1 -42.740103519485714,-10.115201625700543"/><text fill="#e1ed5e" text-anchor="middle" style="font-size:6.75px;font-family:Arial"><textPath startOffset="22.206" xlink:href="#id19">July</textPath></text><line x1="58.667" x2="56.235" y1="174.274" y2="178.643" stroke="#e1ed5e" stroke-width=".3"/><path id="id20" fill="none" stroke="none" d="M 58.180547188652646 175.14741091055294 a86.0,86.0 0 0,1 -31.652253787137756,-30.449443065178592"/><text fill="#e1ed5e" text-anchor="middle" style="font-size:6.75px;font-family:Arial"><textPath startOffset="22.206" xlink:href="#id20">August</textPath></text><line x1="26.633" x2="22.317" y1="142.922" y2="145.446" stroke="#e1ed5e" stroke-width=".3"/><path id="id21" fill="none" stroke="none" d="M 25.769776987707644 143.4266507060508 a86.0,86.0 0 0,1 -11.730757126820373,-40.83630448921669"/><text fill="#e1ed5e" text-anchor="middle" style="font-size:6.75px;font-family:Arial"><textPath startOffset="21.466" xlink:href="#id21">September</textPath></text><path fill="#ffce13" stroke="none" d="M 79.18660465613746 102.79330883721812 l -21.97568945624006 2.9492971496444325 a43.172714780874294,43.172714780874294 0 0,0 -0.09250985746931596,-0.7373945852911038 l 22.023200822956227 -2.57058481006592"/><line x1="15.007" x2="10.008" y1="101.097" y2="101.162" stroke="#e1ed5e" stroke-width=".3"/><path id="id22" fill="none" stroke="none" d="M 14.007167355692545 101.11028546245083 a86.0,86.0 0 0,1 10.666146001902534,-42.60595125391555"/><text fill="#e1ed5e" text-anchor="middle" style="font-size:6.75px;font-family:Arial"><textPath startOffset="22.206" xlink:href="#id22">October</textPath></text><path fill="#ff880c" stroke="none" d="M 79.08570108090925 98.10471618934814 l -17.437930587408765 -1.5802503187624632 a38.5093864610167,38.5093864610167 0 0,0 0.06550790345720878,-0.6596556479803443 l 17.40814555826933 1.8801814974472377"/><path fill="#96ff23" stroke="none" d="M 79.16333360222342 97.38593545837743 l -33.29013054880961 -4.176414220602734 a54.551083852818216,54.551083852818216 0 0,0 0.1249063984464331,-0.9306977507122618 l 33.21330815130534 4.7488303133796546"/><path fill="#36ff6c" stroke="none" d="M 79.3925641242962 95.95851677861259 l -45.83636533012859 -8.989323200054436 a67.70953134288601,67.70953134288601 0 0,0 0.23414827806600597,-1.14179015991824 l 45.67483775614758 9.77698901613608"/><path fill="#ffb510" stroke="none" d="M 79.46518482838121 95.60439243477599 l -20.000570096580805 -4.281249014932974 a41.45365241994952,41.45365241994952 0 0,0 0.1553635773674569,-0.6964644536022072 l 19.92391213221131 4.62489163808514"/><path fill="#4dd2ff" stroke="none" d="M 79.62865764111835 94.90015583598534 l -61.114027076644945 -15.299532492043955 a84.0,84.0 0 0,0 0.3632146725187706,-1.3996142978045447 l 60.84161607225587 16.349243215397365"/><path fill="#40ffc9" stroke="none" d="M 79.81627453868168 94.20196356495316 l -52.00348841725491 -14.938675279280512 a75.10662460977724,75.10662460977724 0 0,0 0.3676437189395164,-1.2395118547813317 l 51.738638801203685 15.831616520808383"/><line x1="26.266" x2="21.929" y1="57.711" y2="55.224" stroke="#e1ed5e" stroke-width=".3"/><path id="id23" fill="none" stroke="none" d="M 25.398753493254645 57.213857153982495 a86.0,86.0 0 0,1 29.58750427330803,-30.492523968695096"/><text fill="#e1ed5e" text-anchor="middle" style="font-size:6.75px;font-family:Arial"><textPath startOffset="21.466" xlink:href="#id23">November</textPath></text><path fill="#84ff25" stroke="none" d="M 82.7489923806493 88.02491185347247 l -28.757229936928656 -19.96233327022565 a56.00675682260417,56.00675682260417 0 0,0 0.556566826409073,-0.7872243055426039 l 28.409350490715706 20.454384076100038"/><path fill="red" stroke="none" d="M 83.17141714833178 87.43820079747576 l -7.231156830683982 -5.3977415038253875 a30.023593655083697,30.023593655083697 0 0,0 0.3127086806334092,-0.411487968414043 l 7.137172209826465 5.521414248120457"/><path fill="#34ff60" stroke="none" d="M 84.07557802195018 86.31012108654704 l -34.73243926543495 -29.858721940932494 a66.8026812891238,66.8026812891238 0 0,0 0.7571229372203626,-0.8655223991763479 l 34.21332446463674 30.452159896311787"/><path fill="#38ff7f" stroke="none" d="M 87.51073957382395 83.11751280151077 l -28.650122622860966 -38.728100136485956 a69.17359511689628,69.17359511689628 0 0,0 0.9633400893611187,-0.6999075438533395 l 27.979237217146064 39.21552691515596"/><line x1="56.763" x2="54.22" y1="26.818" y2="22.514" stroke="#e1ed5e" stroke-width=".3"/><path id="id24" fill="none" stroke="none" d="M 56.25429882871897 25.957352633546506 a86.0,86.0 0 0,1 42.265352541879196,-11.944610805530505"/><text fill="#e1ed5e" text-anchor="middle" style="font-size:6.75px;font-family:Arial"><textPath startOffset="22.206" xlink:href="#id24">December</textPath></text></svg>