<?xml version="1.0" encoding="utf-8" ?>
<svg baseProfile="full" height="200mm" version="1.1" viewBox="0,0,200,200" width="200mm" xmlns="http://www.w3.org/2000/svg" xmlns:ev="http://www.w3.org/2001/xml-events" xmlns:xlink="http://www.w3.org/1999/xlink"><defs /><rect fill="#1a1a1a" height="200" width="200" x="0" y="0" /><text alignment-baseline="middle" fill="#e1ed5e" style="dominant-baseline: central; font-size:9.0px; font-family:Arial;" text-anchor="middle" x="100.0" y="100.0">2023</text><line stroke="#e1ed5e" stroke-width="0.3" x1="100.0" x2="100.0" y1="15.0" y2="10.0" /><path d="M 100.0 14.0 a86.0,86.0 0 0,1 42.46469731375804,11.215312516191453" fill="none" id="id85" stroke="none" /><text fill="#e1ed5e" style="font-size:6.75px; font-family:Arial;" text-anchor="middle"><textPath startOffset="22.20632615414155" xlink:href="#id85">January</textPath></text><line stroke="#e1ed5e" stroke-width="0.3" x1="143.23703022742887" x2="145.7803849466894" y1="26.81831364943548" y2="22.513508569990506" /><path d="M 143.74570117128098 25.957352633546492 a86.0,86.0 0 0,1 28.547481713284135,27.462654790039103" fill="none" id="id86" stroke="none" /><text fill="#e1ed5e" style="font-size:6.75px; font-family:Arial;" text-anchor="middle"><textPath startOffset="19.985693538727396" xlink:href="#id86">February</textPath></text><path d="M 117.45458315368197 88.32363383020206 l 2.255558527258365 -1.5088717415817072 a23.713712991904586,23.713712991904586 0 0,0 0.22404192598811234,0.3412312239129292 l -2.2811970886044026 1.469822453691104" fill="#ff1f03" stroke="none" /><line stroke="#e1ed5e" stroke-width="0.3" x1="172.23445277983987" x2="176.4835382374775" y1="55.19839476539836" y2="52.563006222186495" /><path d="M 173.08426987136738 54.67131705675599 a86.0,86.0 0 0,1 12.851231095245387,41.99856678651699" fill="none" id="id87" stroke="none" /><text fill="#e1ed5e" style="font-size:6.75px; font-family:Arial;" text-anchor="middle"><textPath startOffset="22.20632615414155" xlink:href="#id87">March</textPath></text><line stroke="#e1ed5e" stroke-width="0.3" x1="184.98032266829074" x2="189.97916517819016" y1="98.17113171792111" y2="98.06355123074" /><path d="M 185.9800911702706 98.14961562048488 a86.0,86.0 0 0,1 -9.607161424134198,41.387399972396054" fill="none" id="id88" stroke="none" /><text fill="#e1ed5e" style="font-size:6.75px; font-family:Arial;" text-anchor="middle"><textPath startOffset="21.466115282336823" xlink:href="#id88">April</textPath></text><path d="M 119.79798401119884 107.00284435728193 l 27.21651629188503 9.626890668852377 a49.868941494562634,49.868941494562634 0 0,0 -0.2932192573299159,0.8068134635119055 l -27.046772773549886 -10.093951929370414" fill="#96ff23" stroke="none" /><line stroke="#e1ed5e" stroke-width="0.3" x1="174.80103733775053" x2="179.2010983576182" y1="140.37084112569926" y2="142.7455964860345" /><path d="M 175.68104954172406 140.8457921977663 a86.0,86.0 0 0,1 -30.038265399797805,32.042727171017184" fill="none" id="id89" stroke="none" /><text fill="#e1ed5e" style="font-size:6.75px; font-family:Arial;" text-anchor="middle"><textPath startOffset="22.206326154141568" xlink:href="#id89">May</textPath></text><line stroke="#e1ed5e" stroke-width="0.3" x1="143.8653032363475" x2="146.44561519142675" y1="172.8068346515853" y2="177.08958963109032" /><path d="M 144.38136562736335 173.6633856474863 a86.0,86.0 0 0,1 -40.68145358897372,12.25698825130547" fill="none" id="id90" stroke="none" /><text fill="#e1ed5e" style="font-size:6.75px; font-family:Arial;" text-anchor="middle"><textPath startOffset="21.466115282336833" xlink:href="#id90">June</textPath></text><path d="M 109.57404056367764 118.69057910512821 l 2.8631468609797968 5.589476307188985 a27.28011586964488,27.28011586964488 0 0,0 -0.41978394482082165,0.21048838450490343 l -2.766509008476215 -5.637932532603191" fill="#ff5107" stroke="none" /><path d="M 107.2578585660854 119.70592522655815 l 0.8102885965909439 2.2000272326836066 a23.344501532163033,23.344501532163033 0 0,0 -0.3782703446782984,0.13563428738741096 l -0.7722986912829107 -2.2136490611109774" fill="#ff1a02" stroke="none" /><path d="M 106.91757812671514 119.82793768551818 l 20.752734380145416 59.48381305655456 a84.0,84.0 0 0,0 -1.3693210682510921,0.46454805240750785 l -19.725743578957097 -59.83222409586019" fill="#4dd2ff" stroke="none" /><path d="M 106.57524785965236 119.94407469862006 l 13.245139363332703 40.17522297173246 a63.30227248721427,63.30227248721427 0 0,0 -1.0377914868849953,0.3322680617255812 l -12.551626531356767 -40.39726388011775" fill="#33ff57" stroke="none" /><path d="M 104.13013068566511 120.58985236759428 l 0.5852498830707031 2.9176337524624967 a23.97575270127453,23.97575270127453 0 0,0 -0.40534136542725707,0.07768463740471439 l -0.5349409030717417 -2.927275588215679" fill="#ff2303" stroke="none" /><line stroke="#e1ed5e" stroke-width="0.3" x1="102.19456741930631" x2="102.32365962044197" y1="184.97166512339345" y2="189.96999836594603" /><path d="M 102.22038585953345 185.97133177190398 a86.0,86.0 0 0,1 -42.740103519485714,-10.115201625700543" fill="none" id="id91" stroke="none" /><text fill="#e1ed5e" style="font-size:6.75px; font-family:Arial;" text-anchor="middle"><textPath startOffset="22.20632615414155" xlink:href="#id91">July</textPath></text><path d="M 91.40352486487194 119.15986991738527 l -1.5273941263089355 3.404264226051485 a24.73121263637667,24.73121263637667 0 0,0 -0.3869045168824262,-0.1776088872325203 l 1.585766638958781 -3.3774682684848902" fill="#ff2d04" stroke="none" /><path d="M 90.10565033884886 118.52300852407294 l -1.378728395294338 2.5810890753831752 a23.926245513119717,23.926245513119717 0 0,0 -0.36160212016640436,-0.19717430734934882 l 1.422953327329383 -2.556974116274061" fill="#ff2203" stroke="none" /><line stroke="#e1ed5e" stroke-width="0.3" x1="58.666819895761336" x2="56.23545636021788" y1="174.27360380694188" y2="178.64263932499728" /><path d="M 58.180547188652646 175.14741091055294 a86.0,86.0 0 0,1 -31.652253787137756,-30.449443065178592" fill="none" id="id92" stroke="none" /><text fill="#e1ed5e" style="font-size:6.75px; font-family:Arial;" text-anchor="middle"><textPath startOffset="22.20632615414155" xlink:href="#id92">August</textPath></text><path d="M 89.4739219176387 118.17145234162733 l -1.5971941280403172 2.757279278276161 a24.18647424296158,24.18647424296158 0 0,0 -0.35845751766448253,-0.21178301976077282 l 1.6444195167331819 -2.7293776862216386" fill="#ff2603" stroke="none" /><path d="M 88.54995079064634 117.60387380957326 l -1.5607594945783905 2.3995890923513548 a23.862516028260487,23.862516028260487 0 0,0 -0.34239903957324197,-0.22692341298017865 l 1.6018332328915943 -2.372367658279858" fill="#ff2103" stroke="none" /><path d="M 87.95078237400918 117.19931262002967 l -1.362091361987072 1.9442785315226 a23.373923311006376,23.373923311006376 0 0,0 -0.3275384224469066,-0.23368996773137876 l 1.3953571122828654 -1.920544301947002" fill="#ff1a02" stroke="none" /><path d="M 87.65650970185807 116.9893568818739 l -2.013434759334338 2.7712552007960123 a24.4254598111837,24.4254598111837 0 0,0 -0.33801932026511045,-0.2500586122314834 l 2.060839050018013 -2.736186639824762" fill="#ff2904" stroke="none" /><path d="M 86.51685102203217 116.09983520530335 l -0.3580308911025682 0.4275142516468756 a21.557632992518275,21.557632992518275 0 0,0 -0.2824404323582494,-0.2407018638700258 l 0.36533680003787417 -0.4212879975538983" fill="#ff0000" stroke="none" /><path d="M 85.70375840098266 115.38237550388516 l -2.107804371444885 2.267941410036361 a24.09619080607767,24.09619080607767 0 0,0 -0.30139075487800276,-0.284983770599564 l 2.146530960713705 -2.231323002690866" fill="#ff2403" stroke="none" /><line stroke="#e1ed5e" stroke-width="0.3" x1="26.63291911575756" x2="22.317208475507996" y1="142.92168965132927" y2="145.44649492493687" /><path d="M 25.769776987707644 143.4266507060508 a86.0,86.0 0 0,1 -11.730757126820373,-40.83630448921669" fill="none" id="id93" stroke="none" /><text fill="#e1ed5e" style="font-size:6.75px; font-family:Arial;" text-anchor="middle"><textPath startOffset="21.46611528233685" xlink:href="#id93">September</textPath></text><line stroke="#e1ed5e" stroke-width="0.3" x1="15.007084014347285" x2="10.007500721073583" y1="101.09737516637583" y2="101.16192664675087" /><path d="M 14.007167355692545 101.11028546245083 a86.0,86.0 0 0,1 10.666146001902534,-42.60595125391555" fill="none" id="id94" stroke="none" /><text fill="#e1ed5e" style="font-size:6.75px; font-family:Arial;" text-anchor="middle"><textPath startOffset="22.20632615414155" xlink:href="#id94">October</textPath></text><path d="M 79.46518482838121 95.60439243477599 l -2.7026126754064332 -0.5785114023478363 a23.76383623174637,23.76383623174637 0 0,0 0.08906415703822797,-0.39925715227617875 l 2.692254131366168 0.6249467241739743" fill="#ff2003" stroke="none" /><line stroke="#e1ed5e" stroke-width="0.3" x1="26.266209847984243" x2="21.928928074336255" y1="57.711370442889674" y2="55.22380399835377" /><path d="M 25.398753493254645 57.213857153982495 a86.0,86.0 0 0,1 29.58750427330803,-30.492523968695096" fill="none" id="id95" stroke="none" /><text fill="#e1ed5e" style="font-size:6.75px; font-family:Arial;" text-anchor="middle"><textPath startOffset="21.46611528233685" xlink:href="#id95">November</textPath></text><path d="M 85.31137513191541 84.99185889309783 l -1.8888053112202856 -1.9298917964644615 a23.700382907988196,23.700382907988196 0 0,0 0.29401651811107365,-0.2828436574738678 l 1.8553055494967843 1.962118540700643" fill="#ff1f03" stroke="none" /><line stroke="#e1ed5e" stroke-width="0.3" x1="56.762969772571076" x2="54.21961505331055" y1="26.818313649435495" y2="22.513508569990535" /><path d="M 56.25429882871897 25.957352633546506 a86.0,86.0 0 0,1 42.265352541879196,-11.944610805530505" fill="none" id="id96" stroke="none" /><text fill="#e1ed5e" style="font-size:6.75px; font-family:Arial;" text-anchor="middle"><textPath startOffset="22.20632615414155" xlink:href="#id96">December</textPath></text></svg>