<svg xmlns="http://www.w3.org/2000/svg" xmlns:ev="http://www.w3.org/2001/xml-events" xmlns:xlink="http://www.w3.org/1999/xlink" width="200mm" height="200mm" baseProfile="full" version="1.1" viewBox="0 0 200 200"><rect width="200" height="200" x="0" y="0" fill="#1a1a1a"/><text style="dominant-baseline:central;font-size:9px;font-family:Arial" x="100" y="100" fill="#e1ed5e" alignment-baseline="middle" text-anchor="middle">2018</text><line x1="100" x2="100" y1="15" y2="10" stroke="#e1ed5e" stroke-width=".3"/><path id="id25" fill="none" stroke="none" d="M 100.0 14.0 a86.0,86.0 0 0,1 42.46469731375804,11.215312516191453"/><text fill="#e1ed5e" text-anchor="middle" style="font-size:6.75px;font-family:Arial"><textPath startOffset="22.206" xlink:href="#id25">January</textPath></text><path fill="red" stroke="none" d="M 107.76421540070413 80.48803036053334 l 10.049744741607906 -25.25565097857277 a48.18170847689599,48.18170847689599 0 0,0 0.7679616675241436,0.3132708465522145 l -10.482990278720436 25.078919245836975"/><line x1="143.237" x2="145.78" y1="26.818" y2="22.514" stroke="#e1ed5e" stroke-width=".3"/><path id="id26" fill="none" stroke="none" d="M 143.74570117128098 25.957352633546492 a86.0,86.0 0 0,1 28.547481713284135,27.462654790039103"/><text fill="#e1ed5e" text-anchor="middle" style="font-size:6.75px;font-family:Arial"><textPath startOffset="19.986" xlink:href="#id26">February</textPath></text><path fill="red" stroke="none" d="M 116.82858285166822 87.43820079747576 l 32.53951577113581 -24.289321737145514 a61.60531045405965,61.60531045405965 0 0,0 0.62701705293989,0.855250555554073 l -32.95279543658933 23.72560873791995"/><path fill="red" stroke="none" d="M 117.65298651832404 88.62581576622439 l 4.8158649551375445 -3.1029613707493153 a26.72895492515733,26.72895492515733 0 0,0 0.2458712606060068,0.3889092881677512 l -4.868563811989507 3.019604434867358"/><line x1="172.234" x2="176.484" y1="55.198" y2="52.563" stroke="#e1ed5e" stroke-width=".3"/><path id="id27" fill="none" stroke="none" d="M 173.08426987136738 54.67131705675599 a86.0,86.0 0 0,1 12.851231095245387,41.99856678651699"/><text fill="#e1ed5e" text-anchor="middle" style="font-size:6.75px;font-family:Arial"><textPath startOffset="22.206" xlink:href="#id27">March</textPath></text><path fill="red" stroke="none" d="M 118.21658344932153 89.55222093294921 l 23.85091758194883 -13.679245514719153 a48.49523644839011,48.49523644839011 0 0,0 0.40907431288328566,0.727697556880902 l -24.08284953612455 13.266664447903457"/><path fill="red" stroke="none" d="M 118.56541770881063 90.18545643968196 l 27.581175277598003 -14.580692470942232 a52.19804196781867,52.19804196781867 0 0,0 0.41308677059827714,0.7979521579175762 l -27.8280714813564 14.10376759076431"/><path fill="red" stroke="none" d="M 119.97218684219823 93.5106431181261 l 44.53244322850989 -14.469467926316582 a67.82418180781337,67.82418180781337 0 0,0 0.3512146590241855,1.1134464471670453 l -44.77491337130228 13.700771312723118"/><path fill="red" stroke="none" d="M 120.28053869075195 94.5502522615342 l 49.22571030736237 -13.227839137441268 a71.9720147091557,71.9720147091557 0 0,0 0.31120585420361274,1.199203105104014 l -49.44611249343629 12.378539606788404"/><path fill="red" stroke="none" d="M 120.45610955862082 95.25157060432595 l 48.59874037778858 -11.281113192189093 a70.89089176555858,70.89089176555858 0 0,0 0.2656910043990711,1.1910406759504653 l -48.78572576918968 10.442894346688664"/><path fill="red" stroke="none" d="M 120.94382443527127 98.46500227214037 l 33.5321876544852 -2.4576137953636814 a54.622127750378496,54.622127750378496 0 0,0 0.060655035105721025,0.9383065465315138 l -33.56952328059534 1.8800481845791326"/><line x1="184.98" x2="189.979" y1="98.171" y2="98.064" stroke="#e1ed5e" stroke-width=".3"/><path id="id28" fill="none" stroke="none" d="M 185.9800911702706 98.14961562048488 a86.0,86.0 0 0,1 -9.607161424134198,41.387399972396054"/><text fill="#e1ed5e" text-anchor="middle" style="font-size:6.75px;font-family:Arial"><textPath startOffset="21.466" xlink:href="#id28">April</textPath></text><path fill="red" stroke="none" d="M 120.99513854157772 99.54816195383933 l 50.26872818079215 -1.0818372967251675 a71.28036798643137,71.28036798643137 0 0,0 0.01584118904949007,1.2269175494858422 l -50.27990237695936 0.21638348917886274"/><path fill="red" stroke="none" d="M 120.9904718944345 100.63252640178507 l 50.958270758817456 1.5355753699282204 a71.98140200549295,71.98140200549295 0 0,0 -0.04798029059319173,1.2381581045817 l -50.92428833537306 -2.4125107215239265"/><path fill="red" stroke="none" d="M 120.8583938346157 102.4346265915055 l 49.346617746533255 5.75981970228155 a70.68162845585138,70.68162845585138 0 0,0 -0.1514555525946831,1.207249772627083 l -49.24016068469172 -6.608387229196027"/><path fill="red" stroke="none" d="M 120.32669344350535 105.2749913415812 l 49.70825880290915 12.899817450348934 a72.35480779312996,72.35480779312996 0 0,0 -0.32322589071402336,1.2028437823296272 l -49.47884483585335 -13.75355216585411"/><path fill="red" stroke="none" d="M 120.02730092923936 106.31721596034902 l 55.79694082718781 17.600041382388515 a79.50692320003238,79.50692320003238 0 0,0 -0.42293044853808315,1.3016460788358135 l -55.48571812763348 -18.557886361202122"/><path fill="red" stroke="none" d="M 118.81262510543309 109.33194174019688 l 56.43787531629926 27.995825220590632 a84.0,84.0 0 0,0 -0.6536853208549238,1.2897831531892228 l -55.94761132565807 -28.96316258548255"/><line x1="174.801" x2="179.201" y1="140.371" y2="142.746" stroke="#e1ed5e" stroke-width=".3"/><path id="id29" fill="none" stroke="none" d="M 175.68104954172406 140.8457921977663 a86.0,86.0 0 0,1 -30.038265399797805,32.042727171017184"/><text fill="#e1ed5e" text-anchor="middle" style="font-size:6.75px;font-family:Arial"><textPath startOffset="22.206" xlink:href="#id29">May</textPath></text><path fill="red" stroke="none" d="M 117.55443506779139 111.5257021239791 l 29.30261205932726 19.239193784708664 a56.054096065723954,56.054096065723954 0 0,0 -0.5365094875342682,0.8020088893005505 l -28.96709946638227 -19.74073958821502"/><line x1="143.865" x2="146.446" y1="172.807" y2="177.09" stroke="#e1ed5e" stroke-width=".3"/><path id="id30" fill="none" stroke="none" d="M 144.38136562736335 173.6633856474863 a86.0,86.0 0 0,1 -40.68145358897372,12.25698825130547"/><text fill="#e1ed5e" text-anchor="middle" style="font-size:6.75px;font-family:Arial"><textPath startOffset="21.466" xlink:href="#id30">June</textPath></text><line x1="102.195" x2="102.324" y1="184.972" y2="189.97" stroke="#e1ed5e" stroke-width=".3"/><path id="id31" fill="none" stroke="none" d="M 102.22038585953345 185.97133177190398 a86.0,86.0 0 0,1 -42.740103519485714,-10.115201625700543"/><text fill="#e1ed5e" text-anchor="middle" style="font-size:6.75px;font-family:Arial"><textPath startOffset="22.206" xlink:href="#id31">July</textPath></text><path fill="red" stroke="none" d="M 94.81253420990036 120.34920634021253 l -6.308472636516952 24.746652135435532 a46.53808173919762,46.53808173919762 0 0,0 -0.7745478257652227,-0.20456512054023615 l 6.733510905093665 -24.634395665591715"/><path fill="red" stroke="none" d="M 94.11515582081647 120.15858648285463 l -4.292557488726296 14.704194152702234 a36.317942925679766,36.317942925679766 0 0,0 -0.5985975677823143,-0.1803525368020876 l 4.5450300309488565 -14.628126246794421"/><path fill="red" stroke="none" d="M 93.42475214034765 119.94407469862007 l -6.000368617343925 18.200348105187658 a40.1639530028127,40.1639530028127 0 0,0 -0.6547303217975992,-0.2221200731481347 l 6.31276867207875 -18.094365045141398"/><path fill="red" stroke="none" d="M 92.7421414339146 119.70592522655815 l -5.40043946394868 14.662817592562368 a36.62571490065433,36.62571490065433 0 0,0 -0.5897259473264316,-0.22298389243543879 l 5.652035632035395 -14.567685450020296"/><line x1="58.667" x2="56.235" y1="174.274" y2="178.643" stroke="#e1ed5e" stroke-width=".3"/><path id="id32" fill="none" stroke="none" d="M 58.180547188652646 175.14741091055294 a86.0,86.0 0 0,1 -31.652253787137756,-30.449443065178592"/><text fill="#e1ed5e" text-anchor="middle" style="font-size:6.75px;font-family:Arial"><textPath startOffset="22.206" xlink:href="#id32">August</textPath></text><line x1="26.633" x2="22.317" y1="142.922" y2="145.446" stroke="#e1ed5e" stroke-width=".3"/><path id="id33" fill="none" stroke="none" d="M 25.769776987707644 143.4266507060508 a86.0,86.0 0 0,1 -11.730757126820373,-40.83630448921669"/><text fill="#e1ed5e" text-anchor="middle" style="font-size:6.75px;font-family:Arial"><textPath startOffset="21.466" xlink:href="#id33">September</textPath></text><line x1="15.007" x2="10.008" y1="101.097" y2="101.162" stroke="#e1ed5e" stroke-width=".3"/><path id="id34" fill="none" stroke="none" d="M 14.007167355692545 101.11028546245083 a86.0,86.0 0 0,1 10.666146001902534,-42.60595125391555"/><text fill="#e1ed5e" text-anchor="middle" style="font-size:6.75px;font-family:Arial"><textPath startOffset="22.206" xlink:href="#id34">October</textPath></text><line x1="26.266" x2="21.929" y1="57.711" y2="55.224" stroke="#e1ed5e" stroke-width=".3"/><path id="id35" fill="none" stroke="none" d="M 25.398753493254645 57.213857153982495 a86.0,86.0 0 0,1 29.58750427330803,-30.492523968695096"/><text fill="#e1ed5e" text-anchor="middle" style="font-size:6.75px;font-family:Arial"><textPath startOffset="21.466" xlink:href="#id35">November</textPath></text><path fill="red" stroke="none" d="M 85.57189188830299 84.74124197986013 l -2.868916445170047 -3.0340846823402905 a25.175685743561065,25.175685743561065 0 0,0 0.31744395737872405,-0.2950295620912503 l 2.816264603996467 3.0830188305061883"/><line x1="56.763" x2="54.22" y1="26.818" y2="22.514" stroke="#e1ed5e" stroke-width=".3"/><path id="id36" fill="none" stroke="none" d="M 56.25429882871897 25.957352633546506 a86.0,86.0 0 0,1 42.265352541879196,-11.944610805530505"/><text fill="#e1ed5e" text-anchor="middle" style="font-size:6.75px;font-family:Arial"><textPath startOffset="22.206" xlink:href="#id36">December</textPath></text></svg>