<svg xmlns="http://www.w3.org/2000/svg" xmlns:ev="http://www.w3.org/2001/xml-events" xmlns:xlink="http://www.w3.org/1999/xlink" width="200mm" height="200mm" baseProfile="full" version="1.1" viewBox="0 0 200 200"><rect width="200" height="200" x="0" y="0" fill="#1a1a1a"/><text style="dominant-baseline:central;font-size:9px;font-family:Arial" x="100" y="100" fill="#e1ed5e" alignment-baseline="middle" text-anchor="middle">2021</text><line x1="100" x2="100" y1="15" y2="10" stroke="#e1ed5e" stroke-width=".3"/><path id="id61" fill="none" stroke="none" d="M 100.0 14.0 a86.0,86.0 0 0,1 42.46469731375804,11.215312516191453"/><text fill="#e1ed5e" text-anchor="middle" style="font-size:6.75px;font-family:Arial"><textPath startOffset="22.206" xlink:href="#id61">January</textPath></text><line x1="143.237" x2="145.78" y1="26.818" y2="22.514" stroke="#e1ed5e" stroke-width=".3"/><path id="id62" fill="none" stroke="none" d="M 143.74570117128098 25.957352633546492 a86.0,86.0 0 0,1 28.547481713284135,27.462654790039103"/><text fill="#e1ed5e" text-anchor="middle" style="font-size:6.75px;font-family:Arial"><textPath startOffset="19.986" xlink:href="#id62">February</textPath></text><line x1="172.234" x2="176.484" y1="55.198" y2="52.563" stroke="#e1ed5e" stroke-width=".3"/><path id="id63" fill="none" stroke="none" d="M 173.08426987136738 54.67131705675599 a86.0,86.0 0 0,1 12.851231095245387,41.99856678651699"/><text fill="#e1ed5e" text-anchor="middle" style="font-size:6.75px;font-family:Arial"><textPath startOffset="22.206" xlink:href="#id63">March</textPath></text><path fill="#ffa50f" stroke="none" d="M 119.47837535516314 92.15188598940014 l 13.624707740823498 -5.489588210586653 a35.689051696575504,35.689051696575504 0 0,0 0.22468203966155828,0.5717912836970773 l -13.717183330366757 5.254247921993791"/><line x1="184.98" x2="189.979" y1="98.171" y2="98.064" stroke="#e1ed5e" stroke-width=".3"/><path id="id64" fill="none" stroke="none" d="M 185.9800911702706 98.14961562048488 a86.0,86.0 0 0,1 -9.607161424134198,41.387399972396054"/><text fill="#e1ed5e" text-anchor="middle" style="font-size:6.75px;font-family:Arial"><textPath startOffset="21.466" xlink:href="#id64">April</textPath></text><path fill="#fffe18" stroke="none" d="M 120.99980553446 99.90962569577887 l 21.462013938431333 -0.09236345420852031 a42.46221268418273,42.46221268418273 0 0,0 -0.0031456466364991717,0.7309374961824444 l -21.46042399450533 -0.27708352017760884"/><path fill="#c4ff1e" stroke="none" d="M 120.89721153311464 102.0752229133903 l 26.22628023881819 2.604432538683253 a47.355281140856334,47.355281140856334 0 0,0 -0.08753442979327071,0.810460105723978 l -26.177563507523868 -3.0554889662920224"/><path fill="#96ff23" stroke="none" d="M 120.76222939487914 103.15116336523771 l 30.015109876523695 4.555508603994807 a51.3588451615153,51.3588451615153 0 0,0 -0.14018090012801368,0.8729065989102597 l -29.93224722203439 -5.071494432598271"/><path fill="#98ff23" stroke="none" d="M 120.41448212921028 104.9243191809786 l 29.303015698915143 7.0683841673463474 a51.14347000244099,51.14347000244099 0 0,0 -0.2138008578049655,0.8540281488795453 l -29.177003526815117 -7.571740155623289"/><path fill="#ff920d" stroke="none" d="M 120.02730092923936 106.31721596034902 l 12.673006726293163 3.997449313804777 a34.28851761864769,34.28851761864769 0 0,0 -0.18239491043661374,0.561353813115325 l -12.602319564840302 -4.215002026897897"/><line x1="174.801" x2="179.201" y1="140.371" y2="142.746" stroke="#e1ed5e" stroke-width=".3"/><path id="id65" fill="none" stroke="none" d="M 175.68104954172406 140.8457921977663 a86.0,86.0 0 0,1 -30.038265399797805,32.042727171017184"/><text fill="#e1ed5e" text-anchor="middle" style="font-size:6.75px;font-family:Arial"><textPath startOffset="22.206" xlink:href="#id65">May</textPath></text><path fill="#4dd2ff" stroke="none" d="M 118.12598468904814 110.60418214915192 l 54.37795406714442 31.812546447455787 a84.0,84.0 0 0,0 -0.7408764972070911,1.2417516244555835 l -53.8222966942391 -32.74386016579747"/><path fill="#c3ff1e" stroke="none" d="M 116.0416608686014 113.55231037782055 l 20.23636455017091 17.096078488944627 a47.49125044061849,47.49125044061849 0 0,0 -0.5329366141038953,0.6199256826299382 l -19.939085426496238 -17.441881270736094"/><path fill="red" stroke="none" d="M 115.32070863581623 114.36230785411682 l 2.3246030353476166 2.1791853905652028 a24.186318916618387,24.186318916618387 0 0,0 -0.28734895790263376,0.30128423355491696 l -2.2867475260660184 -2.218876740702627"/><path fill="#65ff29" stroke="none" d="M 114.29624159901734 115.38237550388516 l 23.680509716236816 25.479598260538175 a55.784716010616016,55.784716010616016 0 0,0 -0.7089983731474506,0.647653203681021 l -23.2384117936225 -25.88344423080578"/><path fill="#35ff2f" stroke="none" d="M 113.48314897796784 116.09983520530334 l 25.291192259309348 30.199475522067114 a60.391023440693694,60.391023440693694 0 0,0 -0.8027113623835893,0.6605768029303761 l -24.76761076838107 -30.630347443854667"/><path fill="#44ffe7" stroke="none" d="M 111.7513745106137 117.40417183066458 l 31.34175484998632 46.418168903651065 a77.00849936790415,77.00849936790415 0 0,0 -1.1049813938865238,0.7323214150742101 l -30.53809875735983 -46.9507883398166"/><line x1="143.865" x2="146.446" y1="172.807" y2="177.09" stroke="#e1ed5e" stroke-width=".3"/><path id="id66" fill="none" stroke="none" d="M 144.38136562736335 173.6633856474863 a86.0,86.0 0 0,1 -40.68145358897372,12.25698825130547"/><text fill="#e1ed5e" text-anchor="middle" style="font-size:6.75px;font-family:Arial"><textPath startOffset="21.466" xlink:href="#id66">June</textPath></text><path fill="#c2ff1e" stroke="none" d="M 110.8373102113329 117.98757091392108 l 13.689441718721069 22.72148705589181 a47.52671839111125,47.52671839111125 0 0,0 -0.7043734165666715,0.41615623009287855 l -13.296300431126015 -22.95376185827844"/><path fill="#31ff2f" stroke="none" d="M 110.21172684928248 118.3499491758327 l 19.346402566780423 34.76449273225163 a60.785088251840094,60.785088251840094 0 0,0 -0.9186571614135736,0.5009251312184895 l -18.7451225934982 -35.09235851522989"/><path fill="#31ff43" stroke="none" d="M 109.2508944713604 118.85261126421891 l 18.29442107737928 37.28262277161673 a62.529264420251096,62.529264420251096 0 0,0 -0.9703569120868383,0.46583028629411904 l -17.649951497292207 -37.59200733441041"/><path fill="#44ffe8" stroke="none" d="M 107.59598834532513 119.57807347666477 l 20.304606225730833 52.33355483579118 a77.13446352939297,77.13446352939297 0 0,0 -1.2419742440461086,0.46960838758662626 l -19.40076176092445 -52.67531147348444"/><path fill="#c2ff1e" stroke="none" d="M 104.83641907484287 120.43548508189849 l 6.114605834767572 25.836250826163564 a47.549957839269936,47.549957839269936 0 0,0 -0.7981143826457893,0.1816482350528393 l -5.66897130272892 -25.93767579479409"/><path fill="#39ff8d" stroke="none" d="M 103.7750983002368 120.6578951692458 l 8.585272196372264 46.979876794459514 a68.75788649331541,68.75788649331541 0 0,0 -1.1661043806667775,0.20274219378844763 l -7.7753188442334356 -47.12069756676897"/><line x1="102.195" x2="102.324" y1="184.972" y2="189.97" stroke="#e1ed5e" stroke-width=".3"/><path id="id67" fill="none" stroke="none" d="M 102.22038585953345 185.97133177190398 a86.0,86.0 0 0,1 -42.740103519485714,-10.115201625700543"/><text fill="#e1ed5e" text-anchor="middle" style="font-size:6.75px;font-family:Arial"><textPath startOffset="22.206" xlink:href="#id67">July</textPath></text><path fill="#c2ff1e" stroke="none" d="M 95.86986931433489 120.58985236759428 l -5.2162326344902326 26.004373234956294 a47.52237753746885,47.52237753746885 0 0,0 -0.8006582355206091,-0.16778571790755603 l 5.663082331440228 -25.910731536322196"/><path fill="#bfff1e" stroke="none" d="M 93.76903079525671 120.05430185196036 l -7.944656747725946 25.569785260345192 a47.77557635419551,47.77557635419551 0 0,0 -0.7832433887965478,-0.25076979908165736 l 8.383621481613435 -25.429242614603826"/><path fill="#c3ff1e" stroke="none" d="M 93.08242187328487 119.8279376855182 l -8.734647167455242 25.036224610524403 a47.51615741182273,47.51615741182273 0 0,0 -0.769943758156291,-0.27607443838804413 l 9.16431048624126 -24.8821626310964"/><path fill="#40ffca" stroke="none" d="M 92.06813273071674 119.44442032107085 l -20.105348379253783 49.28686163240564 a74.22987660161408,74.22987660161408 0 0,0 -1.1789420192676103,-0.4927978596688917 l 20.950761858018858 -48.933478729716775"/><path fill="#c2ff1e" stroke="none" d="M 90.7491055286396 118.85261126421891 l -11.706727140588825 23.85740931766858 a47.574864810474175,47.574864810474175 0 0,0 -0.7320776979059846,-0.3670789554137713 l 12.115658746177571 -23.652362521345506"/><line x1="58.667" x2="56.235" y1="174.274" y2="178.643" stroke="#e1ed5e" stroke-width=".3"/><path id="id68" fill="none" stroke="none" d="M 58.180547188652646 175.14741091055294 a86.0,86.0 0 0,1 -31.652253787137756,-30.449443065178592"/><text fill="#e1ed5e" text-anchor="middle" style="font-size:6.75px;font-family:Arial"><textPath startOffset="22.206" xlink:href="#id68">August</textPath></text><path fill="#c3ff1e" stroke="none" d="M 89.7882731507175 118.34994917583269 l -12.89138074361544 23.165149728644842 a47.51059900167088,47.51059900167088 0 0,0 -0.7111912085946335,-0.4038329291904246 l 13.28822071913128 -22.939813633659785"/><path fill="#baff1f" stroke="none" d="M 88.24862548938628 117.40417183066458 l -15.234425321593811 22.562684543750382 a48.22429886516843,48.22429886516843 0 0,0 -0.683965495756123,-0.4704377047114216 l 15.620547701972825 -22.297106049673857"/><path fill="#beff1e" stroke="none" d="M 86.24171649860922 115.8653595955263 l -17.59683082367734 20.29177903850148 a47.858978975093024,47.858978975093024 0 0,0 -0.6177401063467526,-0.5450838204404207 l 17.94351328293068 -19.98587207628877"/><path fill="#c2ff1e" stroke="none" d="M 82.44556493220864 111.52570212397912 l -22.23794931950439 14.60075352553054 a47.60278920433228,47.60278920433228 0 0,0 -0.44382831504266357,-0.6888314010804308 l 22.4859824979241 -14.215800524528658"/><line x1="26.633" x2="22.317" y1="142.922" y2="145.446" stroke="#e1ed5e" stroke-width=".3"/><path id="id69" fill="none" stroke="none" d="M 25.769776987707644 143.4266507060508 a86.0,86.0 0 0,1 -11.730757126820373,-40.83630448921669"/><text fill="#e1ed5e" text-anchor="middle" style="font-size:6.75px;font-family:Arial"><textPath startOffset="21.466" xlink:href="#id69">September</textPath></text><path fill="#ffde14" stroke="none" d="M 79.86692584326677 105.97154293290107 l -18.204367578641897 5.3994815553697535 a39.988243731453586,39.988243731453586 0 0,0 -0.190053388685341,-0.6616007786758928 l 18.294613604213342 -5.0853233011892645"/><path fill="#c2ff1e" stroke="none" d="M 79.4281124754447 104.21870165774334 l -26.015314112652558 5.3349916794343155 a47.556707337311465,47.556707337311465 0 0,0 -0.15754872937682732,-0.803337576845615 l 26.103292775005052 -4.886390375520746"/><path fill="#c1ff1e" stroke="none" d="M 79.1416061653843 102.43462659150553 l -26.461865058535658 3.088673118513346 a47.64151279505684,47.64151279505684 0 0,0 -0.08806351808153788,-0.8153588061674593 l 26.51111087811825 -2.6327179904611047"/><path fill="#f9ff18" stroke="none" d="M 79.04373962182676 101.35467743843564 l -21.976419793837774 1.4206236959772696 a43.02228867853105,43.02228867853105 0 0,0 -0.04141130701729272,-0.7394267053363593 l 21.997617451742595 -1.0421252743054727"/><line x1="15.007" x2="10.008" y1="101.097" y2="101.162" stroke="#e1ed5e" stroke-width=".3"/><path id="id70" fill="none" stroke="none" d="M 14.007167355692545 101.11028546245083 a86.0,86.0 0 0,1 10.666146001902534,-42.60595125391555"/><text fill="#e1ed5e" text-anchor="middle" style="font-size:6.75px;font-family:Arial"><textPath startOffset="22.206" xlink:href="#id70">October</textPath></text><path fill="#ff1902" stroke="none" d="M 79.00175016825051 100.2711162175752 l -4.854469626594356 0.06267786382396431 a25.854874238344458,25.854874238344458 0 0,0 -0.0019153570443881517,-0.44506152282845185 l 4.8548292809282465 0.020893137208162927"/><path fill="#c1ff1e" stroke="none" d="M 79.00019446554 99.90962569577889 l -26.656035440682746 -0.11471633164850512 a47.656282284888896,47.656282284888896 0 0,0 0.010591025248557854,-0.8202865772201133 l 26.650111408316473 0.5735391669290905"/><path fill="#b9ff1f" stroke="none" d="M 81.6062741919709 89.86733742301443 l -23.927445370400743 -13.181056018661218 a48.31781249881837,48.31781249881837 0 0,0 0.4075776796967029,-0.7250352134408019 l 23.69701004941161 13.590974742036805"/><line x1="26.266" x2="21.929" y1="57.711" y2="55.224" stroke="#e1ed5e" stroke-width=".3"/><path id="id71" fill="none" stroke="none" d="M 25.398753493254645 57.213857153982495 a86.0,86.0 0 0,1 29.58750427330803,-30.492523968695096"/><text fill="#e1ed5e" text-anchor="middle" style="font-size:6.75px;font-family:Arial"><textPath startOffset="21.466" xlink:href="#id71">November</textPath></text><path fill="#c2ff1e" stroke="none" d="M 86.65592168130627 83.78471172551755 l -16.89811579436304 -20.534038571800338 a47.5931016894962,47.5931016894962 0 0,0 0.637059958890072,-0.5151248488719293 l 16.542152436908466 20.821869517936403"/><path fill="#c0ff1e" stroke="none" d="M 89.00827224532344 82.1063720568725 l -13.998960898883414 -22.78915594579157 a47.745402127656895,47.745402127656895 0 0,0 0.7039898886864352,-0.4241460309369547 l 13.60460894397933 23.026748586187146"/><line x1="56.763" x2="54.22" y1="26.818" y2="22.514" stroke="#e1ed5e" stroke-width=".3"/><path id="id72" fill="none" stroke="none" d="M 56.25429882871897 25.957352633546506 a86.0,86.0 0 0,1 42.265352541879196,-11.944610805530505"/><text fill="#e1ed5e" text-anchor="middle" style="font-size:6.75px;font-family:Arial"><textPath startOffset="22.206" xlink:href="#id72">December</textPath></text><path fill="#ffc112" stroke="none" d="M 90.26544431104013 81.39251694778311 l -7.792369958414095 -14.895018999402017 a37.81019394776103,37.81019394776103 0 0,0 0.5792873030917576,-0.2967334562845188 l 7.534822167733574 15.02694498099904"/></svg>