<?xml version="1.0" encoding="utf-8" ?>
<svg baseProfile="full" height="200mm" version="1.1" viewBox="0,0,200,200" width="200mm" xmlns="http://www.w3.org/2000/svg" xmlns:ev="http://www.w3.org/2001/xml-events" xmlns:xlink="http://www.w3.org/1999/xlink"><defs /><rect fill="#1a1a1a" height="200" width="200" x="0" y="0" /><text alignment-baseline="middle" fill="#e1ed5e" style="dominant-baseline: central; font-size:9.0px; font-family:Arial;" text-anchor="middle" x="100.0" y="100.0">2017</text><line stroke="#e1ed5e" stroke-width="0.3" x1="100.0" x2="100.0" y1="15.0" y2="10.0" /><path d="M 100.0 14.0 a86.0,86.0 0 0,1 42.46469731375804,11.215312516191453" fill="none" id="id13" stroke="none" /><text fill="#e1ed5e" style="font-size:6.75px; font-family:Arial;" text-anchor="middle"><textPath startOffset="22.20632615414155" xlink:href="#id13">January</textPath></text><line stroke="#e1ed5e" stroke-width="0.3" x1="143.23703022742887" x2="145.7803849466894" y1="26.81831364943548" y2="22.513508569990506" /><path d="M 143.74570117128098 25.957352633546492 a86.0,86.0 0 0,1 28.547481713284135,27.462654790039103" fill="none" id="id14" stroke="none" /><text fill="#e1ed5e" style="font-size:6.75px; font-family:Arial;" text-anchor="middle"><textPath startOffset="19.985693538727396" xlink:href="#id14">February</textPath></text><path d="M 111.90073688211348 82.69761687909136 l 5.606293140138675 -8.150943320542897 a30.892845889220595,30.892845889220595 0 0,0 0.4355433179733064,0.30512592798010457 l -5.745767597695632 8.053232549798857" fill="#ff0f01" stroke="none" /><line stroke="#e1ed5e" stroke-width="0.3" x1="172.23445277983987" x2="176.4835382374775" y1="55.19839476539836" y2="52.563006222186495" /><path d="M 173.08426987136738 54.67131705675599 a86.0,86.0 0 0,1 12.851231095245387,41.99856678651699" fill="none" id="id15" stroke="none" /><text fill="#e1ed5e" style="font-size:6.75px; font-family:Arial;" text-anchor="middle"><textPath startOffset="22.20632615414155" xlink:href="#id15">March</textPath></text><path d="M 120.98425023603335 99.18683210126433 l 16.96946191331206 -0.6575894554968548 a37.98219837121594,37.98219837121594 0 0,0 0.019693418148195217,0.6535286732355188 l -16.9782670259159 0.36539063483633694" fill="#ff800b" stroke="none" /><line stroke="#e1ed5e" stroke-width="0.3" x1="184.98032266829074" x2="189.97916517819016" y1="98.17113171792111" y2="98.06355123074" /><path d="M 185.9800911702706 98.14961562048488 a86.0,86.0 0 0,1 -9.607161424134198,41.387399972396054" fill="none" id="id16" stroke="none" /><text fill="#e1ed5e" style="font-size:6.75px; font-family:Arial;" text-anchor="middle"><textPath startOffset="21.466115282336823" xlink:href="#id16">April</textPath></text><line stroke="#e1ed5e" stroke-width="0.3" x1="174.80103733775053" x2="179.2010983576182" y1="140.37084112569926" y2="142.7455964860345" /><path d="M 175.68104954172406 140.8457921977663 a86.0,86.0 0 0,1 -30.038265399797805,32.042727171017184" fill="none" id="id17" stroke="none" /><text fill="#e1ed5e" style="font-size:6.75px; font-family:Arial;" text-anchor="middle"><textPath startOffset="22.206326154141568" xlink:href="#id17">May</textPath></text><line stroke="#e1ed5e" stroke-width="0.3" x1="143.8653032363475" x2="146.44561519142675" y1="172.8068346515853" y2="177.08958963109032" /><path d="M 144.38136562736335 173.6633856474863 a86.0,86.0 0 0,1 -40.68145358897372,12.25698825130547" fill="none" id="id18" stroke="none" /><text fill="#e1ed5e" style="font-size:6.75px; font-family:Arial;" text-anchor="middle"><textPath startOffset="21.466115282336833" xlink:href="#id18">June</textPath></text><path d="M 107.93186726928326 119.44442032107085 l 11.639626576757026 28.53373409502625 a51.81647105448663,51.81647105448663 0 0,0 -0.8287647876708929,0.3297826127701775 l -11.146740713044267 -28.7298635522025" fill="#b9ff1f" stroke="none" /><path d="M 107.59598834532513 119.57807347666477 l 6.956124573052758 17.928874007274572 a40.23102161208692,40.23102161208692 0 0,0 -0.647776497918265,0.24493364348110783 l -6.6464778543742185 -18.04595590086231" fill="#ffa20f" stroke="none" /><line stroke="#e1ed5e" stroke-width="0.3" x1="102.19456741930631" x2="102.32365962044197" y1="184.97166512339345" y2="189.96999836594603" /><path d="M 102.22038585953345 185.97133177190398 a86.0,86.0 0 0,1 -42.740103519485714,-10.115201625700543" fill="none" id="id19" stroke="none" /><text fill="#e1ed5e" style="font-size:6.75px; font-family:Arial;" text-anchor="middle"><textPath startOffset="22.20632615414155" xlink:href="#id19">July</textPath></text><line stroke="#e1ed5e" stroke-width="0.3" x1="58.666819895761336" x2="56.23545636021788" y1="174.27360380694188" y2="178.64263932499728" /><path d="M 58.180547188652646 175.14741091055294 a86.0,86.0 0 0,1 -31.652253787137756,-30.449443065178592" fill="none" id="id20" stroke="none" /><text fill="#e1ed5e" style="font-size:6.75px; font-family:Arial;" text-anchor="middle"><textPath startOffset="22.20632615414155" xlink:href="#id20">August</textPath></text><line stroke="#e1ed5e" stroke-width="0.3" x1="26.63291911575756" x2="22.317208475507996" y1="142.92168965132927" y2="145.44649492493687" /><path d="M 25.769776987707644 143.4266507060508 a86.0,86.0 0 0,1 -11.730757126820373,-40.83630448921669" fill="none" id="id21" stroke="none" /><text fill="#e1ed5e" style="font-size:6.75px; font-family:Arial;" text-anchor="middle"><textPath startOffset="21.46611528233685" xlink:href="#id21">September</textPath></text><path d="M 79.18660465613746 102.79330883721812 l -21.97568945624006 2.9492971496444325 a43.172714780874294,43.172714780874294 0 0,0 -0.09250985746931596,-0.7373945852911038 l 22.023200822956227 -2.57058481006592" fill="#ffce13" stroke="none" /><line stroke="#e1ed5e" stroke-width="0.3" x1="15.007084014347285" x2="10.007500721073583" y1="101.09737516637583" y2="101.16192664675087" /><path d="M 14.007167355692545 101.11028546245083 a86.0,86.0 0 0,1 10.666146001902534,-42.60595125391555" fill="none" id="id22" stroke="none" /><text fill="#e1ed5e" style="font-size:6.75px; font-family:Arial;" text-anchor="middle"><textPath startOffset="22.20632615414155" xlink:href="#id22">October</textPath></text><path d="M 79.08570108090925 98.10471618934814 l -17.437930587408765 -1.5802503187624632 a38.5093864610167,38.5093864610167 0 0,0 0.06550790345720878,-0.6596556479803443 l 17.40814555826933 1.8801814974472377" fill="#ff880c" stroke="none" /><path d="M 79.16333360222342 97.38593545837743 l -33.29013054880961 -4.176414220602734 a54.551083852818216,54.551083852818216 0 0,0 0.1249063984464331,-0.9306977507122618 l 33.21330815130534 4.7488303133796546" fill="#96ff23" stroke="none" /><path d="M 79.3925641242962 95.95851677861259 l -45.83636533012859 -8.989323200054436 a67.70953134288601,67.70953134288601 0 0,0 0.23414827806600597,-1.14179015991824 l 45.67483775614758 9.77698901613608" fill="#36ff6c" stroke="none" /><path d="M 79.46518482838121 95.60439243477599 l -20.000570096580805 -4.281249014932974 a41.45365241994952,41.45365241994952 0 0,0 0.1553635773674569,-0.6964644536022072 l 19.92391213221131 4.62489163808514" fill="#ffb510" stroke="none" /><path d="M 79.62865764111835 94.90015583598534 l -61.114027076644945 -15.299532492043955 a84.0,84.0 0 0,0 0.3632146725187706,-1.3996142978045447 l 60.84161607225587 16.349243215397365" fill="#4dd2ff" stroke="none" /><path d="M 79.81627453868168 94.20196356495316 l -52.00348841725491 -14.938675279280512 a75.10662460977724,75.10662460977724 0 0,0 0.3676437189395164,-1.2395118547813317 l 51.738638801203685 15.831616520808383" fill="#40ffc9" stroke="none" /><line stroke="#e1ed5e" stroke-width="0.3" x1="26.266209847984243" x2="21.928928074336255" y1="57.711370442889674" y2="55.22380399835377" /><path d="M 25.398753493254645 57.213857153982495 a86.0,86.0 0 0,1 29.58750427330803,-30.492523968695096" fill="none" id="id23" stroke="none" /><text fill="#e1ed5e" style="font-size:6.75px; font-family:Arial;" text-anchor="middle"><textPath startOffset="21.46611528233685" xlink:href="#id23">November</textPath></text><path d="M 82.7489923806493 88.02491185347247 l -28.757229936928656 -19.96233327022565 a56.00675682260417,56.00675682260417 0 0,0 0.556566826409073,-0.7872243055426039 l 28.409350490715706 20.454384076100038" fill="#84ff25" stroke="none" /><path d="M 83.17141714833178 87.43820079747576 l -7.231156830683982 -5.3977415038253875 a30.023593655083697,30.023593655083697 0 0,0 0.3127086806334092,-0.411487968414043 l 7.137172209826465 5.521414248120457" fill="#ff0000" stroke="none" /><path d="M 84.07557802195018 86.31012108654704 l -34.73243926543495 -29.858721940932494 a66.8026812891238,66.8026812891238 0 0,0 0.7571229372203626,-0.8655223991763479 l 34.21332446463674 30.452159896311787" fill="#34ff60" stroke="none" /><path d="M 87.51073957382395 83.11751280151077 l -28.650122622860966 -38.728100136485956 a69.17359511689628,69.17359511689628 0 0,0 0.9633400893611187,-0.6999075438533395 l 27.979237217146064 39.21552691515596" fill="#38ff7f" stroke="none" /><line stroke="#e1ed5e" stroke-width="0.3" x1="56.762969772571076" x2="54.21961505331055" y1="26.818313649435495" y2="22.513508569990535" /><path d="M 56.25429882871897 25.957352633546506 a86.0,86.0 0 0,1 42.265352541879196,-11.944610805530505" fill="none" id="id24" stroke="none" /><text fill="#e1ed5e" style="font-size:6.75px; font-family:Arial;" text-anchor="middle"><textPath startOffset="22.20632615414155" xlink:href="#id24">December</textPath></text></svg>